<?xml version="1.0" encoding="utf-8"?>
<!-- Generator: Adobe Illustrator 22.0.1, SVG Export Plug-In . SVG Version: 6.00 Build 0)  -->
<svg version="1.1" id="Layer_1" xmlns="http://www.w3.org/2000/svg" xmlns:xlink="http://www.w3.org/1999/xlink" x="0px" y="0px"
	 viewBox="0 0 30 24.9" style="enable-background:new 0 0 30 24.9;" xml:space="preserve">
<style type="text/css">
	.st0{fill:#FFFFFF;}
</style>
<g>
	<g>
		<g>
			<path class="st0" d="M28.3,10.1L28.3,10.1l-20,0l6.3-6.3c0.3-0.3,0.5-0.7,0.5-1.2s-0.2-0.9-0.5-1.2l-1-1C13.3,0.2,12.9,0,12.5,0
				c-0.4,0-0.9,0.2-1.2,0.5L0.5,11.3C0.2,11.6,0,12,0,12.5c0,0.4,0.2,0.9,0.5,1.2l10.8,10.8c0.3,0.3,0.7,0.5,1.2,0.5
				c0.4,0,0.9-0.2,1.2-0.5l1-1c0.3-0.3,0.5-0.7,0.5-1.2c0-0.4-0.2-0.8-0.5-1.1l-6.4-6.4h20.1c0.9,0,1.7-0.8,1.7-1.7v-1.4
				C30,10.8,29.2,10.1,28.3,10.1z"/>
		</g>
	</g>
</g>
</svg>
