<?xml version="1.0" encoding="utf-8"?>
<!-- Generator: Adobe Illustrator 22.0.1, SVG Export Plug-In . SVG Version: 6.00 Build 0)  -->
<svg version="1.1" id="Layer_1" xmlns="http://www.w3.org/2000/svg" xmlns:xlink="http://www.w3.org/1999/xlink" x="0px" y="0px"
	 viewBox="0 0 1923 513.8" style="enable-background:new 0 0 1923 513.8;" xml:space="preserve">
<style type="text/css">
	.st0{fill:#BAB491;}
	.st1{fill:#B7B191;}
	.st2{fill:#A59F84;}
	.st3{fill:#90C247;}
	.st4{fill:#87B048;}
</style>
<g>
	<g>
		<rect x="-0.5" y="146.4" class="st0" width="1924" height="367.3"/>
		<g>
			<path class="st1" d="M1411.7,250.8c-11.6,0-23.2,0-34.8,0c-14,0-14-21.7,0-21.7c11.6,0,23.2,0,34.8,0
				C1425.8,229.1,1425.8,250.8,1411.7,250.8L1411.7,250.8z"/>
		</g>
		<g>
			<path class="st2" d="M1642.5,250.8c-53.1,0-106.1,0-159.2,0c-14,0-14-21.7,0-21.7c53.1,0,106.1,0,159.2,0
				C1656.5,229.1,1656.5,250.8,1642.5,250.8L1642.5,250.8z"/>
		</g>
		<g>
			<path class="st2" d="M264.7,419.8c-53.1,0-106.1,0-159.2,0c-14,0-14-21.7,0-21.7c53.1,0,106.1,0,159.2,0
				C278.7,398.1,278.7,419.8,264.7,419.8L264.7,419.8z"/>
		</g>
		<g>
			<path class="st2" d="M382.6,260.4c-11.6,0-23.2,0-34.8,0c-14,0-14-21.7,0-21.7c11.6,0,23.2,0,34.8,0
				C396.6,238.7,396.6,260.4,382.6,260.4L382.6,260.4z"/>
		</g>
		<g>
			<path class="st2" d="M613.4,260.4c-53.1,0-106.1,0-159.2,0c-14,0-14-21.7,0-21.7c53.1,0,106.1,0,159.2,0
				C627.4,238.7,627.4,260.4,613.4,260.4L613.4,260.4z"/>
		</g>
		<g>
			<path class="st2" d="M1653.2,430.4c-11.6,0-23.2,0-34.8,0c-14,0-14-21.7,0-21.7c11.6,0,23.2,0,34.8,0
				C1667.3,408.7,1667.3,430.4,1653.2,430.4L1653.2,430.4z"/>
		</g>
		<g>
			<path class="st2" d="M1884,430.4c-53.1,0-106.1,0-159.2,0c-14,0-14-21.7,0-21.7c53.1,0,106.1,0,159.2,0
				C1898,408.7,1898,430.4,1884,430.4L1884,430.4z"/>
		</g>
		<g>
			<path class="st2" d="M1591.7,213.3c-11.6,0-23.2,0-34.8,0c-14,0-14-21.7,0-21.7c11.6,0,23.2,0,34.8,0
				C1605.7,191.6,1605.7,213.3,1591.7,213.3L1591.7,213.3z"/>
		</g>
		<g>
			<path class="st2" d="M199.8,459.3c-11.6,0-23.2,0-34.8,0c-14,0-14-21.7,0-21.7c11.6,0,23.2,0,34.8,0
				C213.8,437.6,213.8,459.3,199.8,459.3L199.8,459.3z"/>
		</g>
	</g>
	<g>
		<rect x="-0.5" y="47.2" class="st3" width="1924" height="99.2"/>
	</g>
	<rect x="-0.5" y="35.1" class="st4" width="1924" height="17.4"/>
	<g>
		<path class="st4" d="M107.4,29.2c0,2.4-0.3,4.8-0.9,7H30.1c0-0.4,0-0.8,0-1.2c0-2.8,0.5-5.4,1.5-7.8c3.2-8.2,11.1-14,20.4-14
			c1.6,0,3.2,0.2,4.7,0.5c4.4-6.5,11.5-11.1,19.7-12c1.1-0.1,2.2-0.2,3.2-0.2C95,1.5,107.4,13.9,107.4,29.2z"/>
	</g>
	<g>
		<path class="st4" d="M1919.4,28c0,2.4-0.3,4.8-0.9,7h-76.4c0-0.4,0-0.8,0-1.2c0-2.8,0.5-5.4,1.5-7.8c3.2-8.2,11.1-14,20.4-14
			c1.6,0,3.2,0.2,4.7,0.5c4.4-6.5,11.5-11.1,19.8-12.1c1.1-0.1,2.2-0.2,3.2-0.2C1907,0.2,1919.4,12.7,1919.4,28z"/>
	</g>
	<g>
		<path class="st4" d="M299.9,29.2c0,2.4-0.3,4.8-0.9,7h-76.4c0-0.4,0-0.8,0-1.2c0-2.8,0.5-5.4,1.5-7.8c3.2-8.2,11.1-14,20.4-14
			c1.6,0,3.2,0.2,4.7,0.5c4.4-6.5,11.5-11.1,19.8-12.1c1.1-0.1,2.2-0.2,3.2-0.2C287.5,1.5,299.9,13.9,299.9,29.2z"/>
	</g>
	<g>
		<path class="st4" d="M1202.9,28.7c0,2.4-0.3,4.8-0.9,7h-76.4c0-0.4,0-0.8,0-1.2c0-2.8,0.5-5.4,1.5-7.8c3.2-8.2,11.1-14,20.4-14
			c1.6,0,3.2,0.2,4.7,0.5c4.4-6.5,11.5-11.1,19.8-12.1c1.1-0.1,2.2-0.2,3.2-0.2C1190.5,1,1202.9,13.4,1202.9,28.7z"/>
	</g>
	<rect x="-0.5" y="133.5" class="st2" width="1924" height="12.8"/>
	<g>
		<g>
			<path class="st4" d="M605.4,28.7c0,2.4,0.3,4.8,0.9,7h76.4c0-0.4,0-0.8,0-1.2c0-2.8-0.5-5.4-1.5-7.8c-3.2-8.2-11.1-14-20.4-14
				c-1.6,0-3.2,0.2-4.7,0.5c-4.4-6.5-11.5-11.1-19.8-12.1c-1.1-0.1-2.2-0.2-3.2-0.2C617.8,1,605.4,13.4,605.4,28.7z"/>
		</g>
		<g>
			<path class="st4" d="M614.6,31.3c0,1.5-0.2,3-0.6,4.5h-48.4c0-0.2,0-0.5,0-0.7c0-1.8,0.3-3.4,0.9-5c2-5.2,7-8.9,12.9-8.9
				c1,0,2,0.1,3,0.3c2.8-4.2,7.3-7,12.5-7.7c0.7-0.1,1.4-0.1,2.1-0.1C606.7,13.7,614.6,21.6,614.6,31.3z"/>
		</g>
	</g>
	<g>
		<g>
			<path class="st4" d="M1561.9,28.7c0,2.4-0.3,4.8-0.9,7h-76.4c0-0.4,0-0.8,0-1.2c0-2.8,0.5-5.4,1.5-7.8c3.2-8.2,11.1-14,20.4-14
				c1.6,0,3.2,0.2,4.7,0.5c4.4-6.5,11.5-11.1,19.8-12.1c1.1-0.1,2.2-0.2,3.2-0.2C1549.5,1,1561.9,13.4,1561.9,28.7z"/>
		</g>
		<g>
			<path class="st4" d="M1552.7,31.3c0,1.5,0.2,3,0.6,4.5h48.4c0-0.2,0-0.5,0-0.7c0-1.8-0.3-3.4-0.9-5c-2-5.2-7-8.9-12.9-8.9
				c-1,0-2,0.1-3,0.3c-2.8-4.2-7.3-7-12.5-7.7c-0.7-0.1-1.4-0.1-2.1-0.1C1560.5,13.7,1552.7,21.6,1552.7,31.3z"/>
		</g>
	</g>
</g>
</svg>
