<?xml version="1.0" encoding="utf-8"?>
<!-- Generator: Adobe Illustrator 22.0.1, SVG Export Plug-In . SVG Version: 6.00 Build 0)  -->
<svg version="1.1" id="Layer_1" xmlns="http://www.w3.org/2000/svg" xmlns:xlink="http://www.w3.org/1999/xlink" x="0px" y="0px"
	 viewBox="0 0 621 484.3" style="enable-background:new 0 0 621 484.3;" xml:space="preserve">
<style type="text/css">
	.st0{fill:#36B2D8;}
	.st1{opacity:0.68;fill:none;stroke:#A4E3FF;stroke-width:6.2383;stroke-miterlimit:10;}
	.st2{opacity:0.68;fill:none;stroke:#A4E3FF;stroke-width:9.1311;stroke-miterlimit:10;}
	.st3{opacity:0.89;fill:none;stroke:#CFF3FF;stroke-width:6.2383;stroke-miterlimit:10;}
	.st4{opacity:0.68;fill:none;stroke:#CFF3FF;stroke-width:6.2383;stroke-miterlimit:10;}
	.st5{fill:#22557F;}
	.st6{opacity:0.68;fill:none;stroke:#95E4E8;stroke-width:5.4887;stroke-miterlimit:10;}
	.st7{opacity:0.34;fill:none;stroke:#95E4E8;stroke-width:5.4887;stroke-miterlimit:10;}
	.st8{opacity:0.34;fill:none;stroke:#95E4E8;stroke-width:6.0288;stroke-miterlimit:10;}
	.st9{opacity:0.34;fill:none;stroke:#95E4E8;stroke-width:6.5312;stroke-miterlimit:10;}
	.st10{fill:none;stroke:#FFFFFF;stroke-width:6.947;stroke-miterlimit:10;}
	.st11{fill:none;stroke:#A4EEFF;stroke-width:6.947;stroke-miterlimit:10;}
	.st12{fill:#2E9BC6;}
	.st13{fill:none;stroke:#A4E3FF;stroke-width:6.2715;stroke-miterlimit:10;}
	.st14{opacity:0.53;fill:none;stroke:#A4E3FF;stroke-width:6.2715;stroke-miterlimit:10;}
	.st15{opacity:0.39;fill:none;stroke:#A4E3FF;stroke-width:6.2715;stroke-miterlimit:10;}
	.st16{opacity:0.14;fill:none;stroke:#CFF3FF;stroke-width:6.2715;stroke-miterlimit:10;}
	.st17{fill:none;stroke:#CFF3FF;stroke-width:6.2715;stroke-miterlimit:10;}
	.st18{opacity:0.39;fill:none;stroke:#CFF3FF;stroke-width:6.2715;stroke-miterlimit:10;}
	.st19{fill:none;stroke:#46C4D1;stroke-width:7.9378;stroke-miterlimit:10;}
	.st20{fill:none;stroke:#3A84AD;stroke-width:7.9378;stroke-miterlimit:10;}
	.st21{fill:none;stroke:#95E4E8;stroke-width:6.2715;stroke-miterlimit:10;}
	.st22{fill:#98BA2D;}
	.st23{fill:#36B6DD;}
	.st24{fill:#2E6193;}
	.st25{fill:#FFFFFF;}
	.st26{fill:#CCB5A3;}
	.st27{opacity:0.2;fill:#FFFFFF;}
	.st28{opacity:0.68;}
	.st29{fill:#A4E3FF;}
	.st30{fill:#CFF3FF;}
	.st31{fill:#38C7E8;}
	.st32{fill:#57DFFF;}
	.st33{fill:#00CFFF;}
	.st34{opacity:0.5;fill:#2469CE;}
	.st35{fill:none;stroke:#38300E;stroke-width:3.5189;stroke-miterlimit:10;}
</style>
<g id="right-buildings">
	<g>
		<g>
			<rect x="169.4" y="160.4" class="st0" width="123.5" height="313.6"/>
			<line class="st1" x1="264.8" y1="189.4" x2="242.4" y2="189.4"/>
			<line class="st2" x1="303.3" y1="349.5" x2="275.2" y2="349.5"/>
			<line class="st1" x1="242.2" y1="325.2" x2="185.3" y2="325.2"/>
			<line class="st1" x1="292.9" y1="205" x2="242.2" y2="205"/>
			<line class="st1" x1="261.1" y1="219.7" x2="224.3" y2="219.7"/>
			<line class="st2" x1="303.3" y1="379.8" x2="271.5" y2="379.8"/>
			<line class="st2" x1="303.3" y1="275.2" x2="275.2" y2="275.2"/>
			<line class="st1" x1="292.9" y1="250" x2="233.1" y2="250"/>
			<line class="st1" x1="272.1" y1="385.8" x2="244.1" y2="385.8"/>
			<line class="st1" x1="278.3" y1="265.6" x2="257.5" y2="265.6"/>
			<line class="st1" x1="219.8" y1="400.5" x2="178.1" y2="400.5"/>
			<line class="st1" x1="215.6" y1="280.3" x2="182.4" y2="280.3"/>
			<line class="st1" x1="205.1" y1="416.1" x2="178.1" y2="416.1"/>
			<line class="st1" x1="234.9" y1="295.9" x2="257.5" y2="295.9"/>
			<line class="st1" x1="268.4" y1="416.1" x2="234.9" y2="416.1"/>
			<line class="st3" x1="231" y1="189.4" x2="212.6" y2="189.4"/>
			<line class="st4" x1="270.6" y1="309.6" x2="231" y2="309.6"/>
			<line class="st4" x1="210.8" y1="339.9" x2="177.3" y2="339.9"/>
			<line class="st4" x1="215.7" y1="219.7" x2="190.5" y2="219.7"/>
			<line class="st4" x1="270.6" y1="339.9" x2="227.3" y2="339.9"/>
			<line class="st3" x1="251.5" y1="235.3" x2="213.8" y2="235.3"/>
			<line class="st4" x1="185.3" y1="250" x2="210.8" y2="250"/>
			<line class="st3" x1="238.3" y1="385.8" x2="221.8" y2="385.8"/>
			<line class="st4" x1="314.3" y1="280.3" x2="232.5" y2="280.3"/>
			<line class="st3" x1="212.6" y1="295.9" x2="174.1" y2="295.9"/>
			<line class="st4" x1="234.7" y1="416.1" x2="212.6" y2="416.1"/>
			<polygon class="st5" points="246.4,163.8 246.4,473.9 287.5,473.9 287.5,473.9 287.6,473.9 287.6,473.9 358.4,473.9 358.4,163.8 
							"/>
			<line class="st6" x1="246.2" y1="173.8" x2="169.4" y2="173.8"/>
			<line class="st7" x1="292.9" y1="173.8" x2="258.1" y2="173.8"/>
			<line class="st8" x1="254.8" y1="189.4" x2="246.6" y2="189.4"/>
			<line class="st8" x1="259" y1="235.3" x2="250.7" y2="235.3"/>
			<line class="st9" x1="292.9" y1="197.2" x2="273.4" y2="197.2"/>
			<line class="st10" x1="246.2" y1="160.3" x2="169.4" y2="160.3"/>
			<line class="st11" x1="292.9" y1="160.3" x2="246.2" y2="160.3"/>
			<rect x="274.3" y="4" class="st12" width="119.3" height="461.5"/>
			<rect x="367.7" y="4" class="st5" width="52.8" height="461.5"/>
			<line class="st13" x1="293.2" y1="412.2" x2="276.5" y2="412.2"/>
			<line class="st13" x1="306.9" y1="33.1" x2="301" y2="33.1"/>
			<line class="st13" x1="321.6" y1="292.7" x2="306.9" y2="292.7"/>
			<line class="st13" x1="355.4" y1="33.1" x2="343.9" y2="33.1"/>
			<line class="st13" x1="359.4" y1="412.2" x2="344.9" y2="412.2"/>
			<line class="st14" x1="402.8" y1="292.7" x2="379.2" y2="292.7"/>
			<line class="st14" x1="420.4" y1="33.1" x2="396.2" y2="33.1"/>
			<line class="st13" x1="420.5" y1="292.7" x2="407.3" y2="292.7"/>
			<line class="st13" x1="293.2" y1="308.3" x2="274.3" y2="308.3"/>
			<line class="st13" x1="331.1" y1="48.7" x2="316.4" y2="48.7"/>
			<line class="st13" x1="359.4" y1="427.8" x2="331.1" y2="427.8"/>
			<line class="st14" x1="367.7" y1="48.7" x2="382.2" y2="48.7"/>
			<line class="st14" x1="420.5" y1="48.7" x2="410" y2="48.7"/>
			<line class="st13" x1="302.7" y1="442.5" x2="276.5" y2="442.5"/>
			<line class="st13" x1="321.6" y1="63.4" x2="312.9" y2="63.4"/>
			<line class="st13" x1="367.9" y1="323" x2="348.9" y2="323"/>
			<line class="st13" x1="367.3" y1="63.4" x2="340.6" y2="63.4"/>
			<line class="st14" x1="405.5" y1="63.4" x2="393.6" y2="63.4"/>
			<line class="st13" x1="284" y1="79" x2="276.5" y2="79"/>
			<line class="st13" x1="297.3" y1="458" x2="284" y2="458"/>
			<line class="st13" x1="338.3" y1="79" x2="327.1" y2="79"/>
			<line class="st13" x1="359.1" y1="338.6" x2="340.2" y2="338.6"/>
			<line class="st13" x1="367.7" y1="79" x2="349.9" y2="79"/>
			<line class="st13" x1="407.3" y1="458" x2="387.3" y2="458"/>
			<line class="st14" x1="420.5" y1="79" x2="407.3" y2="79"/>
			<line class="st13" x1="284" y1="233.1" x2="276.5" y2="233.1"/>
			<line class="st13" x1="321.6" y1="353.3" x2="284" y2="353.3"/>
			<line class="st13" x1="340.6" y1="233.1" x2="321.6" y2="233.1"/>
			<line class="st13" x1="349.9" y1="233.1" x2="340.6" y2="233.1"/>
			<line class="st15" x1="379.6" y1="353.3" x2="349.9" y2="353.3"/>
			<line class="st16" x1="397.7" y1="472.8" x2="389.9" y2="472.8"/>
			<line class="st14" x1="420.5" y1="93.7" x2="410" y2="93.7"/>
			<line class="st13" x1="302.7" y1="368.9" x2="276.5" y2="368.9"/>
			<line class="st13" x1="326.8" y1="458" x2="317.4" y2="458"/>
			<line class="st13" x1="317.2" y1="248.7" x2="312.1" y2="248.7"/>
			<line class="st13" x1="364.6" y1="458" x2="331.9" y2="458"/>
			<line class="st16" x1="402.9" y1="488.3" x2="381.3" y2="488.3"/>
			<line class="st13" x1="410.7" y1="368.9" x2="402.9" y2="368.9"/>
			<line class="st14" x1="413.6" y1="109.2" x2="403.8" y2="109.2"/>
			<line class="st13" x1="288.7" y1="263.4" x2="276.5" y2="263.4"/>
			<line class="st13" x1="321.6" y1="383.6" x2="288.7" y2="383.6"/>
			<line class="st13" x1="326.8" y1="263.4" x2="321.6" y2="263.4"/>
			<line class="st15" x1="387.4" y1="383.6" x2="367.7" y2="383.6"/>
			<line class="st14" x1="420.5" y1="263.4" x2="413.6" y2="263.4"/>
			<line class="st13" x1="293.2" y1="279" x2="276.5" y2="279"/>
			<line class="st13" x1="331.1" y1="399.1" x2="312.1" y2="399.1"/>
			<line class="st15" x1="396.3" y1="399.1" x2="367.7" y2="399.1"/>
			<line class="st16" x1="409" y1="399.1" x2="398.6" y2="399.1"/>
			<line class="st17" x1="291.2" y1="33.1" x2="282.7" y2="33.1"/>
			<line class="st17" x1="311.1" y1="292.7" x2="296.4" y2="292.7"/>
			<line class="st17" x1="334.4" y1="33.1" x2="311.1" y2="33.1"/>
			<line class="st17" x1="348.9" y1="412.2" x2="334.4" y2="412.2"/>
			<line class="st17" x1="367.5" y1="292.7" x2="343.9" y2="292.7"/>
			<line class="st16" x1="389" y1="33.1" x2="372.5" y2="33.1"/>
			<line class="st16" x1="410" y1="292.7" x2="396.8" y2="292.7"/>
			<line class="st17" x1="309.7" y1="48.7" x2="295" y2="48.7"/>
			<line class="st17" x1="348.9" y1="427.8" x2="320.6" y2="427.8"/>
			<line class="st17" x1="367.5" y1="48.7" x2="348.9" y2="48.7"/>
			<line class="st14" x1="391.6" y1="308.3" x2="367.7" y2="308.3"/>
			<line class="st16" x1="402.9" y1="48.7" x2="391.6" y2="48.7"/>
			<line class="st17" x1="306.7" y1="63.4" x2="287.9" y2="63.4"/>
			<line class="st17" x1="330.1" y1="323" x2="311.1" y2="323"/>
			<line class="st17" x1="367.3" y1="63.4" x2="330.1" y2="63.4"/>
			<line class="st18" x1="383.1" y1="323" x2="367.3" y2="323"/>
			<line class="st16" x1="386.8" y1="63.4" x2="374.8" y2="63.4"/>
			<line class="st16" x1="410" y1="323" x2="395" y2="323"/>
			<line class="st17" x1="320.6" y1="79" x2="286.8" y2="79"/>
			<line class="st13" x1="337.4" y1="95.9" x2="343.3" y2="95.9"/>
			<line class="st13" x1="288.8" y1="95.9" x2="300.3" y2="95.9"/>
			<line class="st13" x1="313.2" y1="111.5" x2="327.9" y2="111.5"/>
			<line class="st13" x1="322.7" y1="126.2" x2="331.4" y2="126.2"/>
			<line class="st13" x1="274.9" y1="126.2" x2="303.7" y2="126.2"/>
			<line class="st13" x1="306" y1="141.8" x2="317.2" y2="141.8"/>
			<line class="st13" x1="274.5" y1="141.8" x2="294.3" y2="141.8"/>
			<line class="st17" x1="353.1" y1="95.9" x2="361.5" y2="95.9"/>
			<line class="st17" x1="309.8" y1="95.9" x2="333.2" y2="95.9"/>
			<line class="st17" x1="334.6" y1="111.5" x2="349.3" y2="111.5"/>
			<line class="st17" x1="274.7" y1="111.5" x2="295.3" y2="111.5"/>
			<line class="st17" x1="337.5" y1="126.2" x2="356.4" y2="126.2"/>
			<line class="st17" x1="274.9" y1="126.2" x2="314.2" y2="126.2"/>
			<line class="st17" x1="323.7" y1="141.8" x2="357.4" y2="141.8"/>
			<line class="st17" x1="312.5" y1="338.6" x2="274.8" y2="338.6"/>
			<line class="st16" x1="396.8" y1="458" x2="376.9" y2="458"/>
			<line class="st18" x1="381" y1="79" x2="367.8" y2="79"/>
			<line class="st17" x1="313.9" y1="233.1" x2="304.6" y2="233.1"/>
			<line class="st17" x1="367.9" y1="353.3" x2="339.4" y2="353.3"/>
			<line class="st18" x1="387.2" y1="472.8" x2="379.4" y2="472.8"/>
			<line class="st16" x1="402.8" y1="93.7" x2="380" y2="93.7"/>
			<line class="st14" x1="420.5" y1="141.8" x2="406" y2="141.8"/>
			<line class="st14" x1="367.7" y1="141.8" x2="378.2" y2="141.8"/>
			<line class="st14" x1="382.7" y1="156.5" x2="394.6" y2="156.5"/>
			<line class="st14" x1="367.7" y1="172.1" x2="381" y2="172.1"/>
			<line class="st14" x1="367.7" y1="186.8" x2="378.2" y2="186.8"/>
			<line class="st14" x1="374.6" y1="202.4" x2="384.4" y2="202.4"/>
			<line class="st16" x1="399.2" y1="126.2" x2="415.7" y2="126.2"/>
			<line class="st16" x1="385.3" y1="141.8" x2="396.7" y2="141.8"/>
			<line class="st16" x1="401.5" y1="156.5" x2="413.4" y2="156.5"/>
			<line class="st18" x1="407.2" y1="172.1" x2="420.5" y2="172.1"/>
			<line class="st16" x1="385.5" y1="186.8" x2="408.3" y2="186.8"/>
			<line class="st17" x1="306.7" y1="248.7" x2="301.6" y2="248.7"/>
			<line class="st17" x1="357.2" y1="488.3" x2="339.4" y2="488.3"/>
			<line class="st15" x1="392.4" y1="488.3" x2="370.8" y2="488.3"/>
			<line class="st16" x1="400.2" y1="368.9" x2="392.4" y2="368.9"/>
			<line class="st17" x1="311.1" y1="383.6" x2="278.2" y2="383.6"/>
			<line class="st17" x1="344.8" y1="263.4" x2="316.3" y2="263.4"/>
			<line class="st18" x1="401.1" y1="263.4" x2="376.9" y2="263.4"/>
			<line class="st17" x1="320.6" y1="399.1" x2="301.6" y2="399.1"/>
			<line class="st17" x1="357.2" y1="279" x2="320.6" y2="279"/>
			<line class="st13" x1="321.6" y1="216.8" x2="306.9" y2="216.8"/>
			<line class="st13" x1="284" y1="157.3" x2="276.5" y2="157.3"/>
			<line class="st13" x1="340.6" y1="157.3" x2="321.6" y2="157.3"/>
			<line class="st13" x1="349.9" y1="157.3" x2="340.6" y2="157.3"/>
			<line class="st13" x1="317.2" y1="172.8" x2="312.1" y2="172.8"/>
			<line class="st13" x1="288.7" y1="187.5" x2="276.5" y2="187.5"/>
			<line class="st13" x1="326.8" y1="187.5" x2="321.6" y2="187.5"/>
			<line class="st13" x1="293.2" y1="203.1" x2="276.5" y2="203.1"/>
			<line class="st17" x1="311.1" y1="216.8" x2="296.4" y2="216.8"/>
			<line class="st17" x1="367.5" y1="216.8" x2="343.9" y2="216.8"/>
			<line class="st17" x1="313.9" y1="157.3" x2="304.6" y2="157.3"/>
			<line class="st17" x1="306.7" y1="172.8" x2="301.6" y2="172.8"/>
			<line class="st17" x1="344.8" y1="187.5" x2="316.3" y2="187.5"/>
			<line class="st17" x1="357.2" y1="203.1" x2="320.6" y2="203.1"/>
			<line class="st18" x1="380.4" y1="279" x2="369.9" y2="279"/>
			<line class="st19" x1="367.7" y1="4" x2="274.3" y2="4"/>
			<line class="st20" x1="420.5" y1="4" x2="367.7" y2="4"/>
			<line class="st21" x1="367.9" y1="17.5" x2="274.3" y2="17.5"/>
			<polygon class="st22" points="298,465.5 298,465.5 298.1,465.5 298.1,465.5 			"/>
		</g>
	</g>
	<g>
		<rect x="466.1" y="170" class="st23" width="155.9" height="9.9"/>
		<rect x="466.1" y="150.2" class="st23" width="155.9" height="9.9"/>
		<rect x="465.7" y="189.9" class="st23" width="155.9" height="9.9"/>
		<rect x="465.7" y="209.8" class="st23" width="155.9" height="9.9"/>
		<rect x="466.1" y="249.7" class="st23" width="155.9" height="9.9"/>
		<rect x="466.1" y="229.8" class="st23" width="155.9" height="9.9"/>
		<rect x="466.4" y="269.6" class="st23" width="155.9" height="9.9"/>
		<rect x="466.4" y="289.5" class="st23" width="155.9" height="9.9"/>
		<rect x="466.1" y="242.5" class="st24" width="155.9" height="9.9"/>
		<rect x="466.1" y="222.6" class="st24" width="155.9" height="9.9"/>
		<rect x="466.4" y="262.4" class="st24" width="155.9" height="9.9"/>
		<rect x="466.4" y="282.3" class="st24" width="155.9" height="9.9"/>
		<rect x="466.1" y="162.9" class="st24" width="155.9" height="9.9"/>
		<rect x="466.1" y="143" class="st24" width="155.9" height="9.9"/>
		<rect x="465.7" y="182.7" class="st24" width="155.9" height="9.9"/>
		<rect x="465.7" y="202.6" class="st24" width="155.9" height="9.9"/>
		<rect x="578.1" y="170.2" class="st24" width="45.3" height="9.9"/>
		<rect x="578.1" y="150.3" class="st24" width="45.3" height="9.9"/>
		<rect x="577.9" y="190.1" class="st24" width="45.3" height="9.9"/>
		<rect x="577.9" y="210" class="st24" width="45.3" height="9.9"/>
		<rect x="578.1" y="249.9" class="st24" width="45.3" height="9.9"/>
		<rect x="578.1" y="230" class="st24" width="45.3" height="9.9"/>
		<rect x="578.2" y="269.8" class="st24" width="45.3" height="9.9"/>
		<rect x="578.2" y="289.7" class="st24" width="45.3" height="9.9"/>
		<rect x="461.4" y="239.9" class="st25" width="165.9" height="9.9"/>
		<rect x="461.4" y="259.8" class="st25" width="165.9" height="9.9"/>
		<rect x="461.4" y="220" class="st25" width="165.9" height="9.9"/>
		<rect x="461.8" y="279.7" class="st25" width="165.9" height="9.9"/>
		<rect x="461.8" y="299.6" class="st25" width="165.9" height="9.9"/>
		<rect x="461.4" y="160.2" class="st25" width="165.9" height="9.9"/>
		<rect x="461.4" y="180.1" class="st25" width="165.9" height="9.9"/>
		<rect x="461.4" y="140.2" class="st25" width="165.9" height="9.9"/>
		<rect x="461.1" y="200" class="st25" width="165.9" height="9.9"/>
		<rect x="575.2" y="239.9" class="st26" width="52.3" height="9.9"/>
		<rect x="575.2" y="259.8" class="st26" width="52.3" height="9.9"/>
		<rect x="575.2" y="220" class="st26" width="52.3" height="9.9"/>
		<rect x="575.3" y="279.7" class="st26" width="52.3" height="9.9"/>
		<rect x="575.3" y="299.6" class="st26" width="52.3" height="9.9"/>
		<rect x="575.2" y="160.2" class="st26" width="52.3" height="9.9"/>
		<rect x="575.2" y="180.1" class="st26" width="52.3" height="9.9"/>
		<rect x="575.2" y="140.2" class="st26" width="52.3" height="9.9"/>
		<rect x="575" y="200" class="st26" width="52.3" height="9.9"/>
		<polygon class="st27" points="536.2,152.9 561.3,152.9 566.9,160.2 541.8,160.2 		"/>
		<polygon class="st27" points="511.9,152.9 525.3,152.9 531,160.2 517.6,160.2 		"/>
		<polygon class="st27" points="505.3,172.7 546,172.7 551.7,179.9 511,179.9 		"/>
		<polygon class="st27" points="473.2,172.7 486.6,172.7 492.3,179.9 478.9,179.9 		"/>
		<polygon class="st27" points="544.6,192.5 569.7,192.5 575.3,199.8 550.2,199.8 		"/>
		<polygon class="st27" points="529.3,212.3 570,212.3 575.7,219.6 535,219.6 		"/>
		<polygon class="st27" points="481.6,212.3 495,212.3 500.7,219.6 487.3,219.6 		"/>
		<polygon class="st27" points="531.2,232.2 556.3,232.2 562,239.5 536.9,239.5 		"/>
		<polygon class="st27" points="500.3,252 541.1,252 546.7,259.3 506,259.3 		"/>
		<polygon class="st27" points="468.3,252 481.7,252 487.3,259.3 474,259.3 		"/>
		<polygon class="st27" points="539.6,271.9 564.7,271.9 570.4,279.1 545.3,279.1 		"/>
		<polygon class="st27" points="488,271.9 501.4,271.9 507.1,279.1 493.7,279.1 		"/>
		<polygon class="st27" points="524.4,291.6 565.1,291.6 570.8,298.9 530.1,298.9 		"/>
		<polygon class="st27" points="476.7,291.6 490.1,291.6 495.7,298.9 482.4,298.9 		"/>
	</g>
	<g>
		<rect x="466.1" y="329.2" class="st23" width="155.9" height="9.9"/>
		<rect x="466.1" y="309.3" class="st23" width="155.9" height="9.9"/>
		<rect x="465.7" y="349.1" class="st23" width="155.9" height="9.9"/>
		<rect x="465.7" y="369" class="st23" width="155.9" height="9.9"/>
		<rect x="466.1" y="408.9" class="st23" width="155.9" height="9.9"/>
		<rect x="466.1" y="389" class="st23" width="155.9" height="9.9"/>
		<rect x="466.4" y="428.8" class="st23" width="155.9" height="9.9"/>
		<rect x="466.4" y="448.7" class="st23" width="155.9" height="9.9"/>
		<rect x="466.1" y="401.7" class="st24" width="155.9" height="9.9"/>
		<rect x="466.1" y="381.8" class="st24" width="155.9" height="9.9"/>
		<rect x="466.4" y="421.6" class="st24" width="155.9" height="9.9"/>
		<rect x="466.4" y="441.5" class="st24" width="155.9" height="9.9"/>
		<rect x="466.1" y="322" class="st24" width="155.9" height="9.9"/>
		<rect x="466.1" y="302.1" class="st24" width="155.9" height="9.9"/>
		<rect x="465.7" y="341.9" class="st24" width="155.9" height="9.9"/>
		<rect x="465.7" y="361.8" class="st24" width="155.9" height="9.9"/>
		<rect x="578.1" y="329.3" class="st24" width="45.3" height="9.9"/>
		<rect x="578.1" y="309.5" class="st24" width="45.3" height="9.9"/>
		<rect x="577.9" y="349.2" class="st24" width="45.3" height="9.9"/>
		<rect x="577.9" y="369.1" class="st24" width="45.3" height="9.9"/>
		<rect x="578.1" y="409" class="st24" width="45.3" height="9.9"/>
		<rect x="578.1" y="389.1" class="st24" width="45.3" height="9.9"/>
		<rect x="578.2" y="428.9" class="st24" width="45.3" height="9.9"/>
		<rect x="578.2" y="448.8" class="st24" width="45.3" height="9.9"/>
		<rect x="461.4" y="399" class="st25" width="165.9" height="9.9"/>
		<rect x="461.4" y="418.9" class="st25" width="165.9" height="9.9"/>
		<rect x="461.4" y="379.1" class="st25" width="165.9" height="9.9"/>
		<rect x="461.8" y="438.8" class="st25" width="165.9" height="9.9"/>
		<rect x="461.8" y="458.7" class="st25" width="165.9" height="9.9"/>
		<rect x="461.4" y="319.4" class="st25" width="165.9" height="9.9"/>
		<rect x="461.4" y="339.2" class="st25" width="165.9" height="9.9"/>
		<rect x="461.4" y="299.4" class="st25" width="165.9" height="9.9"/>
		<rect x="461.1" y="359.1" class="st25" width="165.9" height="9.9"/>
		<rect x="575.2" y="399" class="st26" width="52.3" height="9.9"/>
		<rect x="575.2" y="418.9" class="st26" width="52.3" height="9.9"/>
		<rect x="575.2" y="379.1" class="st26" width="52.3" height="9.9"/>
		<rect x="575.3" y="438.8" class="st26" width="52.3" height="9.9"/>
		<rect x="575.3" y="458.7" class="st26" width="52.3" height="9.9"/>
		<rect x="575.2" y="319.4" class="st26" width="52.3" height="9.9"/>
		<rect x="575.2" y="339.2" class="st26" width="52.3" height="9.9"/>
		<rect x="575.2" y="299.4" class="st26" width="52.3" height="9.9"/>
		<rect x="575" y="359.1" class="st26" width="52.3" height="9.9"/>
		<polygon class="st27" points="536.2,312.1 561.3,312.1 566.9,319.3 541.8,319.3 		"/>
		<polygon class="st27" points="511.9,312.1 525.3,312.1 531,319.3 517.6,319.3 		"/>
		<polygon class="st27" points="505.3,331.8 546,331.8 551.7,339.1 511,339.1 		"/>
		<polygon class="st27" points="473.2,331.8 486.6,331.8 492.3,339.1 478.9,339.1 		"/>
		<polygon class="st27" points="544.6,351.7 569.7,351.7 575.3,359 550.2,359 		"/>
		<polygon class="st27" points="529.3,371.4 570,371.4 575.7,378.7 535,378.7 		"/>
		<polygon class="st27" points="481.6,371.4 495,371.4 500.7,378.7 487.3,378.7 		"/>
		<polygon class="st27" points="531.2,391.4 556.3,391.4 562,398.7 536.9,398.7 		"/>
		<polygon class="st27" points="500.3,411.1 541.1,411.1 546.7,418.4 506,418.4 		"/>
		<polygon class="st27" points="468.3,411.1 481.7,411.1 487.3,418.4 474,418.4 		"/>
		<polygon class="st27" points="539.6,431 564.7,431 570.4,438.3 545.3,438.3 		"/>
		<polygon class="st27" points="488,431 501.4,431 507.1,438.3 493.7,438.3 		"/>
		<polygon class="st27" points="524.4,450.8 565.1,450.8 570.8,458 530.1,458 		"/>
		<polygon class="st27" points="476.7,450.8 490.1,450.8 495.7,458 482.4,458 		"/>
	</g>
	<g>
		<g class="st28">
			<rect x="7.4" y="370.8" class="st29" width="37.3" height="4"/>
		</g>
		<g class="st28">
			<rect x="28.7" y="377.3" class="st29" width="12" height="4"/>
		</g>
		<g class="st28">
			<rect x="52.7" y="377.3" class="st29" width="21" height="4"/>
		</g>
		<g class="st28">
			<rect x="38.4" y="260.6" class="st29" width="30.4" height="4"/>
		</g>
		<g class="st28">
			<rect x="49.1" y="267.4" class="st29" width="19.7" height="4"/>
		</g>
		<g class="st28">
			<rect x="4.7" y="267.4" class="st29" width="22.6" height="4"/>
		</g>
		<g class="st28">
			<rect x="30.2" y="370.8" class="st30" width="30.8" height="4"/>
		</g>
		<polygon class="st5" points="33.9,250.9 33.9,243.1 197.6,243.1 197.6,250.9 194.8,250.9 194.8,267.3 197.6,267.3 197.6,272.2 
			194.8,272.2 194.8,289.3 197.6,289.3 197.6,294.3 194.8,294.3 194.8,311.5 197.6,311.5 197.6,316.4 194.8,316.4 194.8,332.8 
			197.6,332.8 197.6,337.8 194.8,337.8 194.8,355 197.6,355 197.6,359.9 194.8,359.9 194.8,377 197.6,377 197.6,381.9 194.8,381.9 
			194.8,399.1 197.6,399.1 197.6,404.1 194.8,404.1 194.8,420.9 197.6,420.9 197.6,425.8 194.8,425.8 194.8,447.8 36.6,447.8 
			36.6,425.8 33.9,425.8 33.9,420.9 36.6,420.9 36.6,404.1 33.9,404.1 33.9,399.1 36.6,399.1 36.6,381.9 33.9,381.9 33.9,377 
			36.6,377 36.6,359.9 33.9,359.9 33.9,355 36.6,355 36.6,337.8 33.9,337.8 33.9,332.8 36.6,332.8 36.6,316.4 33.9,316.4 
			33.9,311.5 36.6,311.5 36.6,294.3 33.9,294.3 33.9,289.3 36.6,289.3 36.6,272.2 33.9,272.2 33.9,267.3 36.6,267.3 36.6,250.9 		
			"/>
		<g class="st28">
			<rect x="44.9" y="377.3" class="st30" width="12" height="4"/>
		</g>
		<g class="st28">
			<rect x="27.5" y="267.4" class="st30" width="16.1" height="4"/>
		</g>
		<g>
			<polygon class="st26" points="19.3,239.4 177.5,239.4 177.5,256.6 180.2,256.6 180.2,261.5 177.5,261.5 177.5,278.6 180.2,278.6 
				180.2,283.6 177.5,283.6 177.5,300.7 180.2,300.7 180.2,305.7 177.5,305.7 177.5,322.1 180.2,322.1 180.2,327.1 177.5,327.1 
				177.5,344.2 180.2,344.2 180.2,349.2 177.5,349.2 177.5,366.3 180.2,366.3 180.2,371.2 177.5,371.2 177.5,388.4 180.2,388.4 
				180.2,393.3 177.5,393.3 177.5,410.2 180.2,410.2 180.2,415.1 177.5,415.1 177.5,437 19.3,437 19.3,415.1 16.5,415.1 16.5,410.2 
				19.3,410.2 19.3,393.3 16.5,393.3 16.5,388.4 19.3,388.4 19.3,371.2 16.5,371.2 16.5,366.3 19.3,366.3 19.3,349.2 16.5,349.2 
				16.5,344.2 19.3,344.2 19.3,327.1 16.5,327.1 16.5,322.1 19.3,322.1 19.3,305.7 16.5,305.7 16.5,300.7 19.3,300.7 19.3,283.6 
				16.5,283.6 16.5,278.6 19.3,278.6 19.3,261.5 16.5,261.5 16.5,256.6 19.3,256.6 			"/>
			<rect x="16.5" y="232.4" class="st26" width="163.7" height="7.8"/>
		</g>
		<rect x="2.7" y="240" class="st25" width="141.8" height="197.6"/>
		<rect x="124.9" y="240" class="st23" width="9.8" height="17.2"/>
		<rect x="106.2" y="240" class="st31" width="9.8" height="17.2"/>
		<rect x="87.5" y="240" class="st23" width="9.8" height="17.2"/>
		<rect x="68.8" y="240" class="st23" width="9.8" height="17.2"/>
		<rect x="50.1" y="240" class="st23" width="9.8" height="17.2"/>
		<rect x="31.3" y="240" class="st32" width="9.8" height="17.2"/>
		<rect x="12.6" y="240" class="st23" width="9.8" height="17.2"/>
		<rect x="12.6" y="262.1" class="st23" width="9.8" height="17.2"/>
		<rect x="31.3" y="262.1" class="st31" width="9.8" height="17.2"/>
		<rect x="50.1" y="262.1" class="st23" width="9.8" height="17.2"/>
		<rect x="68.8" y="262.1" class="st33" width="9.8" height="17.2"/>
		<rect x="87.5" y="262.1" class="st23" width="9.8" height="17.2"/>
		<rect x="106.2" y="262.1" class="st32" width="9.8" height="17.2"/>
		<rect x="124.9" y="262.1" class="st23" width="9.8" height="17.2"/>
		<rect x="124.9" y="284.1" class="st23" width="9.8" height="17.2"/>
		<rect x="106.2" y="284.1" class="st23" width="9.8" height="17.2"/>
		<rect x="87.5" y="284.1" class="st31" width="9.8" height="17.2"/>
		<rect x="68.8" y="284.1" class="st23" width="9.8" height="17.2"/>
		<rect x="50.1" y="284.1" class="st23" width="9.8" height="17.2"/>
		<rect x="31.3" y="284.1" class="st23" width="9.8" height="17.2"/>
		<rect x="12.6" y="284.1" class="st23" width="9.8" height="17.2"/>
		<rect x="12.6" y="306.2" class="st23" width="9.8" height="17.2"/>
		<rect x="31.3" y="306.2" class="st31" width="9.8" height="17.2"/>
		<rect x="50.1" y="306.2" class="st31" width="9.8" height="17.2"/>
		<rect x="68.8" y="306.2" class="st23" width="9.8" height="17.2"/>
		<rect x="87.5" y="306.2" class="st23" width="9.8" height="17.2"/>
		<rect x="106.2" y="306.2" class="st23" width="9.8" height="17.2"/>
		<rect x="124.9" y="306.2" class="st32" width="9.8" height="17.2"/>
		<rect x="124.9" y="327.6" class="st23" width="9.8" height="17.2"/>
		<rect x="106.2" y="327.6" class="st31" width="9.8" height="17.2"/>
		<rect x="87.5" y="327.6" class="st23" width="9.8" height="17.2"/>
		<rect x="68.8" y="327.6" class="st23" width="9.8" height="17.2"/>
		<rect x="50.1" y="327.6" class="st23" width="9.8" height="17.2"/>
		<rect x="31.3" y="327.6" class="st32" width="9.8" height="17.2"/>
		<rect x="12.6" y="327.6" class="st23" width="9.8" height="17.2"/>
		<rect x="12.6" y="349.7" class="st23" width="9.8" height="17.2"/>
		<rect x="31.3" y="349.7" class="st31" width="9.8" height="17.2"/>
		<rect x="50.1" y="349.7" class="st23" width="9.8" height="17.2"/>
		<rect x="68.8" y="349.7" class="st33" width="9.8" height="17.2"/>
		<rect x="87.5" y="349.7" class="st23" width="9.8" height="17.2"/>
		<rect x="106.2" y="349.7" class="st32" width="9.8" height="17.2"/>
		<rect x="124.9" y="349.7" class="st23" width="9.8" height="17.2"/>
		<rect x="124.9" y="371.7" class="st23" width="9.8" height="17.2"/>
		<rect x="106.2" y="371.7" class="st23" width="9.8" height="17.2"/>
		<rect x="87.5" y="371.7" class="st31" width="9.8" height="17.2"/>
		<rect x="68.8" y="371.7" class="st23" width="9.8" height="17.2"/>
		<rect x="50.1" y="371.7" class="st23" width="9.8" height="17.2"/>
		<rect x="31.3" y="371.7" class="st23" width="9.8" height="17.2"/>
		<rect x="12.6" y="371.7" class="st23" width="9.8" height="17.2"/>
		<rect x="0" y="257.1" class="st25" width="147.3" height="4.9"/>
		<rect x="0" y="301.3" class="st25" width="147.3" height="4.9"/>
		<rect x="0" y="232.4" class="st25" width="147.3" height="7.8"/>
		<rect x="0" y="279.2" class="st25" width="147.3" height="4.9"/>
		<rect x="0" y="344.8" class="st25" width="147.3" height="4.9"/>
		<rect x="0" y="322.7" class="st25" width="147.3" height="4.9"/>
		<rect x="0" y="366.8" class="st25" width="147.3" height="4.9"/>
		<rect x="2.7" y="240" class="st34" width="141.9" height="4.9"/>
		<rect x="2.7" y="262.2" class="st34" width="141.9" height="4.9"/>
		<rect x="2.7" y="284.1" class="st34" width="141.9" height="4.9"/>
		<rect x="2.7" y="306.4" class="st34" width="141.9" height="4.9"/>
		<rect x="2.7" y="327.6" class="st34" width="141.9" height="4.9"/>
		<rect x="2.7" y="349.9" class="st34" width="141.9" height="4.9"/>
		<rect x="2.7" y="371.8" class="st34" width="141.9" height="4.9"/>
		<path class="st35" d="M39.4,345.6"/>
	</g>
	<g>
		<g class="st28">
			<rect x="229.1" y="410.6" class="st29" width="37.3" height="4"/>
		</g>
		<g class="st28">
			<rect x="250.3" y="417.1" class="st29" width="12" height="4"/>
		</g>
		<g class="st28">
			<rect x="274.4" y="417.1" class="st29" width="21" height="4"/>
		</g>
		<g class="st28">
			<rect x="260" y="300.4" class="st29" width="30.4" height="4"/>
		</g>
		<g class="st28">
			<rect x="270.7" y="307.2" class="st29" width="19.7" height="4"/>
		</g>
		<g class="st28">
			<rect x="226.4" y="307.2" class="st29" width="22.6" height="4"/>
		</g>
		<g class="st28">
			<rect x="251.9" y="410.6" class="st30" width="30.8" height="4"/>
		</g>
		<polygon class="st5" points="255.6,290.7 255.6,282.9 380.4,282.9 380.4,290.7 377.7,290.7 377.7,307.1 380.4,307.1 380.4,312 
			377.7,312 377.7,329.1 380.4,329.1 380.4,334.1 377.7,334.1 377.7,351.2 380.4,351.2 380.4,356.2 377.7,356.2 377.7,372.6 
			380.4,372.6 380.4,377.6 377.7,377.6 377.7,394.7 380.4,394.7 380.4,399.7 377.7,399.7 377.7,416.8 380.4,416.8 380.4,421.7 
			377.7,421.7 377.7,438.9 380.4,438.9 380.4,443.8 377.7,443.8 377.7,460.7 380.4,460.7 380.4,465.6 377.7,465.6 377.7,487.5 
			258.3,487.5 258.3,465.6 255.6,465.6 255.6,460.7 258.3,460.7 258.3,443.8 255.6,443.8 255.6,438.9 258.3,438.9 258.3,421.7 
			255.6,421.7 255.6,416.8 258.3,416.8 258.3,399.7 255.6,399.7 255.6,394.7 258.3,394.7 258.3,377.6 255.6,377.6 255.6,372.6 
			258.3,372.6 258.3,356.2 255.6,356.2 255.6,351.2 258.3,351.2 258.3,334.1 255.6,334.1 255.6,329.1 258.3,329.1 258.3,312 
			255.6,312 255.6,307.1 258.3,307.1 258.3,290.7 		"/>
		<g class="st28">
			<rect x="266.6" y="417.1" class="st30" width="12" height="4"/>
		</g>
		<g class="st28">
			<rect x="249.2" y="307.2" class="st30" width="16.1" height="4"/>
		</g>
		<g>
			<polygon class="st26" points="240.9,279.2 360.3,279.2 360.3,296.4 363,296.4 363,301.3 360.3,301.3 360.3,318.4 363,318.4 
				363,323.3 360.3,323.3 360.3,340.5 363,340.5 363,345.5 360.3,345.5 360.3,361.9 363,361.9 363,366.9 360.3,366.9 360.3,384 
				363,384 363,389 360.3,389 360.3,406.1 363,406.1 363,411 360.3,411 360.3,428.2 363,428.2 363,433.1 360.3,433.1 360.3,449.9 
				363,449.9 363,454.9 360.3,454.9 360.3,476.8 240.9,476.8 240.9,454.9 238.2,454.9 238.2,449.9 240.9,449.9 240.9,433.1 
				238.2,433.1 238.2,428.2 240.9,428.2 240.9,411 238.2,411 238.2,406.1 240.9,406.1 240.9,389 238.2,389 238.2,384 240.9,384 
				240.9,366.9 238.2,366.9 238.2,361.9 240.9,361.9 240.9,345.5 238.2,345.5 238.2,340.5 240.9,340.5 240.9,323.3 238.2,323.3 
				238.2,318.4 240.9,318.4 240.9,301.3 238.2,301.3 238.2,296.4 240.9,296.4 			"/>
			<rect x="238.2" y="272.2" class="st26" width="124.8" height="7.8"/>
		</g>
		<rect x="224.4" y="279.8" class="st25" width="103" height="197.6"/>
		<rect x="309.2" y="279.8" class="st23" width="9.8" height="17.2"/>
		<rect x="290.4" y="279.8" class="st23" width="9.8" height="17.2"/>
		<rect x="271.7" y="279.8" class="st23" width="9.8" height="17.2"/>
		<rect x="253" y="279.8" class="st32" width="9.8" height="17.2"/>
		<rect x="234.3" y="279.8" class="st23" width="9.8" height="17.2"/>
		<rect x="234.3" y="301.9" class="st23" width="9.8" height="17.2"/>
		<rect x="253" y="301.9" class="st31" width="9.8" height="17.2"/>
		<rect x="271.7" y="301.9" class="st23" width="9.8" height="17.2"/>
		<rect x="290.4" y="301.9" class="st33" width="9.8" height="17.2"/>
		<rect x="309.2" y="301.9" class="st23" width="9.8" height="17.2"/>
		<rect x="309.2" y="323.9" class="st31" width="9.8" height="17.2"/>
		<rect x="290.4" y="323.9" class="st23" width="9.8" height="17.2"/>
		<rect x="271.7" y="323.9" class="st23" width="9.8" height="17.2"/>
		<rect x="253" y="323.9" class="st23" width="9.8" height="17.2"/>
		<rect x="234.3" y="323.9" class="st23" width="9.8" height="17.2"/>
		<rect x="234.3" y="346" class="st23" width="9.8" height="17.2"/>
		<rect x="253" y="346" class="st31" width="9.8" height="17.2"/>
		<rect x="271.7" y="346" class="st31" width="9.8" height="17.2"/>
		<rect x="290.4" y="346" class="st23" width="9.8" height="17.2"/>
		<rect x="309.2" y="346" class="st23" width="9.8" height="17.2"/>
		<rect x="309.2" y="367.4" class="st23" width="9.8" height="17.2"/>
		<rect x="290.4" y="367.4" class="st23" width="9.8" height="17.2"/>
		<rect x="271.7" y="367.4" class="st23" width="9.8" height="17.2"/>
		<rect x="253" y="367.4" class="st32" width="9.8" height="17.2"/>
		<rect x="234.3" y="367.4" class="st23" width="9.8" height="17.2"/>
		<rect x="234.3" y="389.5" class="st23" width="9.8" height="17.2"/>
		<rect x="253" y="389.5" class="st31" width="9.8" height="17.2"/>
		<rect x="271.7" y="389.5" class="st23" width="9.8" height="17.2"/>
		<rect x="290.4" y="389.5" class="st33" width="9.8" height="17.2"/>
		<rect x="309.2" y="389.5" class="st23" width="9.8" height="17.2"/>
		<rect x="309.2" y="411.5" class="st31" width="9.8" height="17.2"/>
		<rect x="290.4" y="411.5" class="st23" width="9.8" height="17.2"/>
		<rect x="271.7" y="411.5" class="st23" width="9.8" height="17.2"/>
		<rect x="253" y="411.5" class="st23" width="9.8" height="17.2"/>
		<rect x="234.3" y="411.5" class="st23" width="9.8" height="17.2"/>
		<rect x="221.7" y="296.9" class="st25" width="108.4" height="4.9"/>
		<rect x="221.7" y="341.1" class="st25" width="108.4" height="4.9"/>
		<rect x="221.7" y="319" class="st25" width="108.4" height="4.9"/>
		<rect x="221.7" y="384.6" class="st25" width="108.4" height="4.9"/>
		<rect x="221.7" y="362.5" class="st25" width="108.4" height="4.9"/>
		<rect x="221.7" y="406.6" class="st25" width="108.4" height="4.9"/>
		<rect x="224.4" y="279.8" class="st34" width="103" height="4.9"/>
		<polyline class="st34" points="278.7,307 327.4,307 327.4,302 224.4,302 224.4,307 278.7,307 		"/>
		<rect x="224.4" y="323.9" class="st34" width="103" height="4.9"/>
		<rect x="224.4" y="346.2" class="st34" width="103" height="4.9"/>
		<rect x="224.4" y="367.4" class="st34" width="103" height="4.9"/>
		<rect x="224.4" y="389.7" class="st34" width="103" height="4.9"/>
		<rect x="224.4" y="411.6" class="st34" width="103" height="4.9"/>
		<path class="st35" d="M261.1,385.4"/>
		<rect x="221.7" y="272.2" class="st25" width="108.4" height="7.8"/>
	</g>
</g>
</svg>
