<?xml version="1.0" encoding="utf-8"?>
<!-- Generator: Adobe Illustrator 22.0.1, SVG Export Plug-In . SVG Version: 6.00 Build 0)  -->
<svg version="1.1" id="Layer_1" xmlns="http://www.w3.org/2000/svg" xmlns:xlink="http://www.w3.org/1999/xlink" x="0px" y="0px"
	 viewBox="0 0 157.7 391.7" style="enable-background:new 0 0 157.7 391.7;" xml:space="preserve">
<style type="text/css">
	.st0{opacity:0.68;fill:none;stroke:#A4E3FF;stroke-width:6.8127;stroke-miterlimit:10;}
	.st1{fill:#00A8B7;}
	.st2{fill:#006881;}
	.st3{fill:none;stroke:#A4E3FF;stroke-width:4.6792;stroke-miterlimit:10;}
	.st4{opacity:0.53;fill:none;stroke:#A4E3FF;stroke-width:4.6792;stroke-miterlimit:10;}
	.st5{opacity:0.31;fill:none;stroke:#A4E3FF;stroke-width:4.6792;stroke-miterlimit:10;}
	.st6{opacity:0.39;fill:none;stroke:#A4E3FF;stroke-width:4.6792;stroke-miterlimit:10;}
	.st7{fill:none;stroke:#CFF3FF;stroke-width:4.6792;stroke-miterlimit:10;}
	.st8{opacity:0.39;fill:none;stroke:#CFF3FF;stroke-width:4.6792;stroke-miterlimit:10;}
	.st9{fill:#98BA2D;}
</style>
<g id="left-buildings">
	<line class="st0" x1="126" y1="138.5" x2="157.6" y2="138.5"/>
	<line class="st0" x1="126" y1="58.6" x2="157.6" y2="58.6"/>
	<rect x="28.9" y="0" class="st1" width="128.7" height="391.7"/>
	<rect class="st2" width="56.8" height="391.7"/>
	<line class="st3" x1="136.8" y1="205.9" x2="157.6" y2="205.9"/>
	<line class="st3" x1="106.4" y1="77.4" x2="122.2" y2="77.4"/>
	<line class="st3" x1="65.7" y1="205.9" x2="81.3" y2="205.9"/>
	<line class="st4" x1="19.1" y1="77.4" x2="44.5" y2="77.4"/>
	<line class="st5" x1="0" y1="77.4" x2="14.3" y2="77.4"/>
	<line class="st3" x1="136.8" y1="94.2" x2="157.6" y2="94.2"/>
	<line class="st3" x1="112" y1="351.8" x2="136.8" y2="351.8"/>
	<line class="st3" x1="65.7" y1="222.6" x2="96.2" y2="222.6"/>
	<line class="st3" x1="126.6" y1="238.4" x2="157.6" y2="238.4"/>
	<line class="st3" x1="56.6" y1="110" x2="77" y2="110"/>
	<line class="st3" x1="0" y1="110" x2="16.1" y2="110"/>
	<line class="st3" x1="132.4" y1="255.2" x2="146.7" y2="255.2"/>
	<line class="st3" x1="66" y1="126.8" x2="86.3" y2="126.8"/>
	<line class="st3" x1="14.3" y1="255.2" x2="35.7" y2="255.2"/>
	<line class="st3" x1="106.4" y1="142.6" x2="146.7" y2="142.6"/>
	<line class="st6" x1="44" y1="142.6" x2="75.9" y2="142.6"/>
	<line class="st3" x1="32.9" y1="303.7" x2="44" y2="303.7"/>
	<line class="st3" x1="24.5" y1="271" x2="32.9" y2="271"/>
	<line class="st3" x1="126.6" y1="159.3" x2="157.6" y2="159.3"/>
	<line class="st3" x1="100.8" y1="255.2" x2="110.8" y2="255.2"/>
	<line class="st3" x1="111" y1="30.1" x2="116.6" y2="30.1"/>
	<line class="st3" x1="60.1" y1="255.2" x2="95.2" y2="255.2"/>
	<line class="st3" x1="41.2" y1="271" x2="55.8" y2="271"/>
	<line class="st3" x1="18.9" y1="287.7" x2="42.2" y2="287.7"/>
	<line class="st3" x1="10.5" y1="159.3" x2="18.9" y2="159.3"/>
	<line class="st4" x1="7.4" y1="30.1" x2="18" y2="30.1"/>
	<line class="st3" x1="141.7" y1="46" x2="157.6" y2="46"/>
	<line class="st3" x1="106.4" y1="175.1" x2="141.7" y2="175.1"/>
	<line class="st3" x1="100.8" y1="46" x2="106.4" y2="46"/>
	<line class="st6" x1="35.7" y1="175.1" x2="56.8" y2="175.1"/>
	<line class="st4" x1="0" y1="46" x2="7.4" y2="46"/>
	<line class="st3" x1="136.8" y1="62.7" x2="157.6" y2="62.7"/>
	<line class="st3" x1="116.6" y1="320.3" x2="136.8" y2="320.3"/>
	<line class="st3" x1="96.2" y1="191.9" x2="116.6" y2="191.9"/>
	<line class="st6" x1="26" y1="191.9" x2="56.8" y2="191.9"/>
	<line class="st4" x1="23.6" y1="62.7" x2="39.2" y2="62.7"/>
	<line class="st3" x1="12.4" y1="191.9" x2="23.6" y2="191.9"/>
	<line class="st3" x1="7.4" y1="353" x2="19.8" y2="353"/>
	<line class="st7" x1="117.6" y1="77.4" x2="133.5" y2="77.4"/>
	<line class="st7" x1="77" y1="205.9" x2="92.5" y2="205.9"/>
	<line class="st7" x1="57" y1="77.4" x2="82.4" y2="77.4"/>
	<line class="st7" x1="123.2" y1="351.8" x2="148.1" y2="351.8"/>
	<line class="st4" x1="31.1" y1="94.2" x2="56.8" y2="94.2"/>
	<line class="st7" x1="97.2" y1="110" x2="117.6" y2="110"/>
	<line class="st8" x1="40.2" y1="110" x2="57.2" y2="110"/>
	<line class="st7" x1="116.1" y1="126.8" x2="157.6" y2="126.8"/>
	<line class="st8" x1="25.6" y1="255.2" x2="46.9" y2="255.2"/>
	<line class="st7" x1="56.6" y1="142.6" x2="87.2" y2="142.6"/>
	<line class="st7" x1="44.2" y1="303.7" x2="55.3" y2="303.7"/>
	<line class="st8" x1="35.8" y1="271" x2="44.2" y2="271"/>
	<line class="st7" x1="112.1" y1="255.2" x2="122.1" y2="255.2"/>
	<line class="st7" x1="122.3" y1="30.1" x2="127.8" y2="30.1"/>
	<line class="st7" x1="68.1" y1="287.7" x2="87.2" y2="287.7"/>
	<line class="st7" x1="52.5" y1="271" x2="67.1" y2="271"/>
	<line class="st7" x1="30.2" y1="287.7" x2="53.5" y2="287.7"/>
	<line class="st7" x1="21.8" y1="159.3" x2="30.2" y2="159.3"/>
	<line class="st7" x1="117.6" y1="175.1" x2="153" y2="175.1"/>
	<line class="st7" x1="81.4" y1="46" x2="112.1" y2="46"/>
	<line class="st7" x1="68.1" y1="303.6" x2="81.4" y2="303.6"/>
	<line class="st8" x1="20.8" y1="46" x2="46.9" y2="46"/>
	<line class="st7" x1="127.8" y1="320.3" x2="148.1" y2="320.3"/>
	<line class="st7" x1="107.4" y1="191.9" x2="127.8" y2="191.9"/>
	<line class="st7" x1="64.9" y1="62.7" x2="107.4" y2="62.7"/>
	<line class="st7" x1="54.4" y1="191.9" x2="68.1" y2="191.9"/>
	<line class="st8" x1="43.1" y1="62.7" x2="54.4" y2="62.7"/>
	<line class="st7" x1="18.7" y1="353" x2="31.1" y2="353"/>
	<polygon class="st9" points="131.7,391.7 131.7,391.7 131.6,391.7 131.6,391.7 	"/>
</g>
</svg>
