<?xml version="1.0" encoding="utf-8"?>
<!-- Generator: Adobe Illustrator 22.0.1, SVG Export Plug-In . SVG Version: 6.00 Build 0)  -->
<svg version="1.1" id="Layer_1" xmlns="http://www.w3.org/2000/svg" xmlns:xlink="http://www.w3.org/1999/xlink" x="0px" y="0px"
	 viewBox="0 0 1100 255.7" style="enable-background:new 0 0 1100 255.7;" xml:space="preserve">
<style type="text/css">
	.st0{opacity:5.000000e-02;}
</style>
<g class="st0">
	<rect y="134.9" width="105.7" height="120.9"/>
	<rect x="98.1" y="91.1" width="105.7" height="164.6"/>
	<rect x="159.4" y="0" width="86.4" height="255.7"/>
	<rect x="211.4" y="117.4" width="86.4" height="137.8"/>
	<rect x="267.4" y="81.7" width="99.3" height="172.2"/>
	
		<rect x="627.7" y="134.9" transform="matrix(-1 4.490707e-11 -4.490707e-11 -1 1360.9873 390.6046)" width="105.7" height="120.9"/>
	<rect x="529.6" y="91.1" transform="matrix(-1 4.492394e-11 -4.492394e-11 -1 1164.809 346.8148)" width="105.7" height="164.6"/>
	<rect x="487.5" y="0" transform="matrix(-1 4.487909e-11 -4.487909e-11 -1 1061.465 255.732)" width="86.4" height="255.7"/>
	<rect x="435.6" y="117.4" transform="matrix(-1 4.492083e-11 -4.492083e-11 -1 957.5372 372.5048)" width="86.4" height="137.8"/>
	<rect x="366.7" y="39.7" transform="matrix(-1 5.582100e-11 -5.582100e-11 -1 832.5902 293.7192)" width="99.3" height="214.2"/>
	
		<rect x="994.3" y="134.9" transform="matrix(-1 4.490707e-11 -4.490707e-11 -1 2094.3206 390.6046)" width="105.7" height="120.9"/>
	<rect x="896.2" y="91.1" transform="matrix(-1 4.492394e-11 -4.492394e-11 -1 1898.1422 346.8148)" width="105.7" height="164.6"/>
	<rect x="854.2" y="0" transform="matrix(-1 4.487909e-11 -4.487909e-11 -1 1794.7983 255.732)" width="86.4" height="255.7"/>
	<rect x="802.2" y="117.4" transform="matrix(-1 4.492083e-11 -4.492083e-11 -1 1690.8705 372.5048)" width="86.4" height="137.8"/>
	<rect x="733.3" y="39.7" transform="matrix(-1 5.582100e-11 -5.582100e-11 -1 1565.9236 293.7192)" width="99.3" height="214.2"/>
</g>
</svg>
