<?xml version="1.0" encoding="utf-8"?>
<!-- Generator: Adobe Illustrator 22.0.1, SVG Export Plug-In . SVG Version: 6.00 Build 0)  -->
<svg version="1.1" id="Layer_1" xmlns="http://www.w3.org/2000/svg" xmlns:xlink="http://www.w3.org/1999/xlink" x="0px" y="0px"
	 viewBox="0 0 30.8 89.7" style="enable-background:new 0 0 30.8 89.7;" xml:space="preserve">
<style type="text/css">
	.st0{fill:#FCC9A2;}
	.st1{fill:#FFFFFF;}
	.st2{fill:#F2F2F2;}
</style>
<g id="right-hand">
	<path class="st0" d="M27.9,64.4c-1.9,9.2-6.6,23.2-15.1,25.3c-2.2-0.7-5.3-6-2.7-13.3c3.6-2.8,6-6.5,7.5-10.6L27.9,64.4L27.9,64.4z
		"/>
	<path class="st1" d="M22.9,19.1C16.1,4.2,6.7,0.6,0,0l2.8,15.4c23.1,17.3,13,49.1,13.9,50.6c1.8,2.8,10.7,7.5,11,7
		C29.3,70.2,36,44.3,22.9,19.1z"/>
	<path class="st2" d="M30.6,66.7l-2.2,8.1l-12.7-7.5c0,0-0.5-6.4,0.2-6.7C16.7,60.4,30.6,66.7,30.6,66.7L30.6,66.7z"/>
</g>
</svg>
