<?xml version="1.0" encoding="utf-8"?>
<!-- Generator: Adobe Illustrator 22.0.1, SVG Export Plug-In . SVG Version: 6.00 Build 0)  -->
<svg version="1.1" id="Layer_1" xmlns="http://www.w3.org/2000/svg" xmlns:xlink="http://www.w3.org/1999/xlink" x="0px" y="0px"
	 viewBox="0 0 37.6 128" style="enable-background:new 0 0 37.6 128;" xml:space="preserve">
<style type="text/css">
	.st0{fill:#FFFFFF;}
	.st1{fill:#474A4D;}
</style>
<g id="left_leg">
	<path class="st0" d="M0,127.8c-1.2-2.4,20.5-21.5,20.5-21.5l2-1.1c3.4-1.8,8.1-3.9,8.8-0.2c0,0-0.4,4.2-0.4,4.2
		C31,109.3,1.2,130.2,0,127.8L0,127.8z"/>
	<path class="st1" d="M36,0L13.8,0c1.1,10.9,0,64.6,7.5,105.4c0.5,2.6,2.9,4.4,5.5,4.1h0c2.4-0.3,4.3-2.2,4.5-4.6
		c1.3-16.9,5.9-79.7,6.1-88.8c0.2-8.5,0.1-12.7,0-14.7C37.5,0.7,36.8,0,36,0z"/>
</g>
</svg>
