<?xml version="1.0" encoding="utf-8"?>
<!-- Generator: Adobe Illustrator 22.0.1, SVG Export Plug-In . SVG Version: 6.00 Build 0)  -->
<svg version="1.1" id="Layer_1" xmlns="http://www.w3.org/2000/svg" xmlns:xlink="http://www.w3.org/1999/xlink" x="0px" y="0px"
	 viewBox="0 0 390.2 493" style="enable-background:new 0 0 390.2 493;" xml:space="preserve">
<style type="text/css">
	.st0{fill:#A3674F;}
	.st1{fill:#BA775D;}
	.st2{opacity:0.3;fill:#9B5D38;}
	.st3{fill:#D1BA9E;}
	.st4{display:none;fill:#4D4D4D;}
	.st5{fill:#4D4D4D;}
</style>
<g>
	<path class="st0" d="M28.7,437.8V113.3c0-3.6,1.7-7,4.7-9.1l102.7-73.4c1.9-1.4,4.2-2.1,6.5-2.1h133.1c6.2,0,11.2-5,11.2-11.2v-6.4
		c0-6.2-5-11.2-11.2-11.2H28.7H11.2C5,0,0,5,0,11.2V449v32.8C0,488,5,493,11.2,493H379c6.2,0,11.2-5,11.2-11.2v-21.6
		c0-6.2-5-11.2-11.2-11.2H39.9C33.7,449,28.7,444,28.7,437.8z M108.3,28.7L28.7,85.6V28.7H108.3z"/>
	<path class="st1" d="M39.9,429.3V119.9c0-2.2,1-4.2,2.8-5.4L141.3,44c1.1-0.8,2.5-1.2,3.9-1.2h135c3.7,0,6.7-3,6.7-6.7V22.6
		c0-3.7-3-6.7-6.7-6.7H39.9H19.7c-3.7,0-6.7,3-6.7,6.7v61.3c0,5.4,6.1,8.6,10.6,5.4l16.3-11.7V49.5c0-3.7,3-6.7,6.7-6.7h67.7
		L81.5,66.3l0.1,0.1l-65.8,47.1c-1.7,1.3-2.8,3.3-2.8,5.4v317v34.5c0,3.7,3,6.7,6.7,6.7h363.8c3.7,0,6.7-3,6.7-6.7v-27.8
		c0-3.7-3-6.7-6.7-6.7H46.6C42.9,435.9,39.9,432.9,39.9,429.3z"/>
	<path class="st2" d="M240.3,28.4l-4.2,0c-1.6,0-3.1-1.3-3.3-3l0-0.1c-0.2-1.5-1.4-2.7-3-2.7h-27.6c-1.6,0-3,1.1-3.2,2.7
		c-0.2,1.8,1.2,3.3,3,3.3h4.5c1.6,0,2.9,1.2,3.1,2.8l0,0.2c0.2,1.5,1.4,2.7,3,2.7h27.7c1.8,0,3.2-1.5,3-3.3
		C243.3,29.5,241.8,28.4,240.3,28.4z"/>
	<path class="st2" d="M80.3,37.1h-4.2c-1.6,0-3.1,1.3-3.3,3l0,0.1c-0.2,1.5-1.4,2.7-3,2.7H42.3c-1.6,0-3-1.1-3.2-2.7
		c-0.2-1.8,1.2-3.3,3-3.3h4.4c1.6,0,3-1.3,3.2-2.9v0c0.2-1.6,1.5-2.8,3.1-2.8h27.6c1.8,0,3.2,1.5,3,3.3
		C83.3,35.9,81.9,37.1,80.3,37.1z"/>
	<path class="st2" d="M18.8,148.3l0,4.2c0,1.6,1.3,3.1,3,3.3l0.1,0c1.5,0.2,2.7,1.4,2.7,3v27.6c0,1.6-1.1,3-2.7,3.2
		c-1.8,0.2-3.3-1.2-3.3-3v-4.3c0-1.6-1.3-3.1-3-3.3l-0.1,0c-1.5-0.2-2.7-1.4-2.7-3v-27.7c0-1.8,1.5-3.2,3.3-3
		C17.7,145.2,18.8,146.7,18.8,148.3z"/>
	<path class="st2" d="M34.2,273.9v4.2c0,1.6,1.3,3.1,3,3.3l0.1,0c1.5,0.2,2.7,1.4,2.7,3v27.6c0,1.6-1.1,3-2.7,3.2
		c-1.8,0.2-3.3-1.2-3.3-3v-4.5c0-1.5-1.3-2.9-2.8-3.1l-0.2,0c-1.5-0.2-2.7-1.4-2.7-3v-27.7c0-1.8,1.5-3.2,3.3-3
		C33.1,270.9,34.2,272.3,34.2,273.9z"/>
	<path class="st2" d="M105.2,442.4l-4.2,0c-1.6,0-3.1,1.3-3.3,3l0,0.1c-0.2,1.5-1.4,2.7-3,2.7H67.2c-1.6,0-3-1.1-3.2-2.7
		c-0.2-1.8,1.2-3.3,3-3.3h4.3c1.6,0,3.1-1.3,3.3-3l0-0.1c0.2-1.5,1.4-2.7,3-2.7h27.7c1.8,0,3.2,1.5,3,3.3
		C108.2,441.2,106.8,442.4,105.2,442.4z"/>
	<path class="st2" d="M226,472h-4.2c-1.6,0-3.1,1.3-3.3,3l0,0.1c-0.2,1.5-1.4,2.7-3,2.7h-27.6c-1.6,0-3-1.1-3.2-2.7
		c-0.2-1.8,1.2-3.3,3-3.3h4.3c1.6,0,3.1-1.3,3.3-3l0-0.1c0.2-1.5,1.4-2.7,3-2.7h27.7c1.8,0,3.2,1.5,3,3.3
		C229.1,470.9,227.6,472,226,472z"/>
	<path class="st2" d="M351.7,456.6h-4.2c-1.6,0-3.1,1.3-3.3,3l0,0.1c-0.2,1.5-1.4,2.7-3,2.7h-27.6c-1.6,0-3-1.1-3.2-2.7
		c-0.2-1.8,1.2-3.3,3-3.3h4.3c1.6,0,3.1-1.3,3.3-3l0-0.1c0.2-1.5,1.4-2.7,3-2.7h27.7c1.8,0,3.2,1.5,3,3.3
		C354.7,455.4,353.2,456.6,351.7,456.6z"/>
	<g>
		<rect x="198" y="42.5" class="st3" width="11.6" height="17.8"/>
		<g id="XMLID_24_">
			<g>
				<path class="st3" d="M196.7,66.9c-0.6,0-1.1-0.1-1.7-0.4c-0.9-0.4-1.6-1.2-1.9-2.2c-0.3-1-0.3-2,0.2-2.9
					c0.4-0.9,1.2-1.6,2.2-1.9l14.3-4.9c0.4-0.1,0.8-0.2,1.2-0.2c0.6,0,1.2,0.1,1.7,0.4c0.9,0.4,1.6,1.2,1.9,2.2
					c0.7,2-0.4,4.2-2.4,4.8l-14.3,4.9C197.5,66.8,197.1,66.9,196.7,66.9z"/>
				<path class="st3" d="M196.7,77.9c-1.6,0-3.1-1-3.6-2.6c-0.3-1-0.3-2,0.2-2.9c0.4-0.9,1.2-1.6,2.2-1.9l14.3-4.9
					c0.4-0.1,0.8-0.2,1.2-0.2c0.6,0,1.2,0.1,1.7,0.4c0.9,0.4,1.6,1.2,1.9,2.2c0.7,2-0.4,4.2-2.4,4.8l-14.5,4.9
					C197.4,77.8,197,77.9,196.7,77.9z"/>
				<path class="st3" d="M196.7,88.8c-0.6,0-1.2-0.1-1.7-0.4c-0.9-0.4-1.6-1.2-1.9-2.2c-0.3-1-0.3-2,0.2-2.9
					c0.5-0.9,1.2-1.6,2.2-1.9l14.5-4.9c0.4-0.1,0.7-0.1,1-0.1c0.6,0,1.2,0.1,1.7,0.4c0.9,0.4,1.6,1.2,1.9,2.2c0.7,2-0.4,4.2-2.4,4.8
					l-14.3,4.9C197.5,88.7,197.1,88.8,196.7,88.8z"/>
				<path class="st3" d="M205.6,110.6c-2,0-3.6-1.6-3.6-3.6V90l7.3-2.5V107C209.2,109,207.6,110.6,205.6,110.6z"/>
				<path class="st4" d="M223.7,99.2c8.9,12.1,13.4,22.3,13.4,30.5c0,19.9-14.1,36-31.5,36s-31.5-16.2-31.5-36
					c0-8.2,4.5-18.4,13.4-30.5c1.9-2.5,3.9-5.1,6-7.6c-1.8-0.9-3.1-2.4-3.7-4.2c-0.6-1.9-0.5-3.9,0.4-5.6c0.4-0.8,1-1.6,1.7-2.2
					c-0.9-0.8-1.6-1.8-2-3.1c-0.6-1.9-0.5-3.9,0.4-5.6c0.4-0.9,1-1.6,1.7-2.2c-0.9-0.8-1.6-1.9-2-3.1c-0.6-1.9-0.5-3.9,0.4-5.6
					c0.9-1.8,2.4-3.1,4.2-3.7l1.5-0.5V42.5c0-1.2,1-2.2,2.2-2.2s2.2,1,2.2,2.2v11.6l7.2-2.5v-9.1c0-1.2,1-2.2,2.2-2.2
					c1.2,0,2.2,1,2.2,2.2v8.3c0.8,0.1,1.6,0.3,2.4,0.7c1.8,0.9,3.1,2.4,3.7,4.2c1,2.9,0.1,5.9-2.1,7.9c0.9,0.8,1.6,1.9,2.1,3.1
					c1,2.9,0.1,5.9-2,7.8c0.9,0.8,1.6,1.9,2,3.1c1.3,3.7-0.6,7.8-4.3,9.2C216.2,89.6,219.9,94,223.7,99.2z M232.7,129.6
					c0-7.2-4.2-16.6-12.5-27.9c-2.6-3.6-5.2-6.8-7.4-9.3v10.8c11.3,14.8,13,22.8,13,26.3c0,13.6-9.1,24.8-20.2,24.8
					c-11.2,0-20.2-11.1-20.2-24.8c0-3.5,1.7-11.5,13-26.3V92.5c-2.6,3.1-5.2,6.2-7.4,9.3c-8.3,11.3-12.5,20.7-12.5,27.9
					c0,17.4,12.2,31.6,27.1,31.6S232.7,147.1,232.7,129.6z M221.4,129.6c0-4.3-3.3-11.4-9.2-19.7c-1.1,2.5-3.6,4.3-6.6,4.3
					c-2.9,0-5.4-1.8-6.6-4.3c-5.9,8.4-9.2,15.4-9.2,19.7c0,11.2,7.1,20.3,15.8,20.3S221.4,140.9,221.4,129.6z M212,61
					c1.5-0.5,2.4-2.2,1.8-3.7c-0.3-0.7-0.8-1.3-1.5-1.7c-0.4-0.2-0.9-0.3-1.3-0.3c-0.3,0-0.6,0.1-1,0.2l-14.3,4.9
					c-0.7,0.3-1.3,0.8-1.7,1.5c-0.3,0.7-0.4,1.5-0.1,2.3c0.3,0.7,0.8,1.3,1.5,1.7c0.7,0.3,1.5,0.4,2.3,0.1L212,61z M212,72
					c1.5-0.5,2.4-2.2,1.8-3.7c-0.3-0.7-0.8-1.3-1.5-1.7c-0.4-0.2-0.9-0.3-1.3-0.3c-0.3,0-0.6,0.1-1,0.2l-14.3,4.9
					c-0.7,0.3-1.3,0.8-1.7,1.5c-0.3,0.7-0.4,1.5-0.1,2.3c0.5,1.5,2.1,2.3,3.6,1.9L212,72z M212,82.8c1.5-0.5,2.4-2.2,1.8-3.7
					c-0.3-0.7-0.8-1.3-1.5-1.7c-0.4-0.2-0.9-0.3-1.3-0.3c-0.3,0-0.5,0-0.8,0.1l-14.5,4.9c-0.7,0.3-1.3,0.8-1.7,1.5
					c-0.3,0.7-0.4,1.5-0.1,2.3c0.3,0.7,0.8,1.3,1.5,1.7c0.7,0.3,1.5,0.4,2.3,0.1L212,82.8z M208.4,107V88.7l-5.6,1.9V107
					c0,1.5,1.2,2.8,2.8,2.8C207.1,109.8,208.4,108.5,208.4,107z"/>
				<path class="st5" d="M205.6,164.8c-16.9,0-30.6-15.8-30.6-35.1c0-8,4.4-18.1,13.2-30c1.8-2.5,3.8-5.1,5.9-7.6l0.7-0.8l-1-0.5
					c-1.6-0.8-2.7-2.1-3.3-3.7c-0.6-1.6-0.5-3.4,0.3-5c0.4-0.7,0.9-1.4,1.5-1.9l0.7-0.6l-0.7-0.6c-0.8-0.7-1.4-1.7-1.8-2.7
					c-0.6-1.6-0.4-3.4,0.3-5c0.4-0.7,0.9-1.4,1.5-2l0.7-0.6l-0.7-0.6c-0.8-0.7-1.4-1.7-1.8-2.7c-0.6-1.6-0.5-3.4,0.3-5
					c0.8-1.6,2.1-2.7,3.7-3.3l2.1-0.7V42.5c0-0.7,0.6-1.3,1.3-1.3c0.7,0,1.3,0.6,1.3,1.3v12.8l8.9-3v-9.7c0-0.7,0.6-1.3,1.3-1.3
					c0.7,0,1.3,0.6,1.3,1.3v9.1l0.8,0.1c0.7,0.1,1.5,0.3,2.1,0.6c1.6,0.8,2.7,2.1,3.3,3.7c0.8,2.5,0.1,5.2-1.8,6.9l-0.7,0.6l0.7,0.6
					c0.8,0.7,1.5,1.7,1.8,2.7c0.8,2.4,0.1,5.2-1.8,6.9l-0.7,0.6l0.7,0.6c0.8,0.7,1.4,1.7,1.8,2.7c1.1,3.3-0.5,6.9-3.8,8.1l-1.2,0.5
					l0.8,0.9c2.4,2.7,6.2,7,10,12.2c8.7,11.9,13.2,22,13.2,30C236.2,149,222.5,164.8,205.6,164.8z M197.7,92
					c-2.6,3.1-5.2,6.3-7.4,9.3c-8.4,11.4-12.7,21-12.7,28.4c0,17.9,12.5,32.5,28,32.5c15.4,0,27.9-14.6,27.9-32.5
					c0-7.4-4.3-16.9-12.7-28.4c-2.2-3-4.7-6.2-7.4-9.3l-1.5-1.8v13.4l0.2,0.2c11.2,14.6,12.9,22.4,12.9,25.8
					c0,13.2-8.7,23.9-19.4,23.9s-19.4-10.7-19.4-23.9c0-3.4,1.7-11.2,12.9-25.8l0.2-0.2V90.2L197.7,92z M198.3,109.4
					c-6.1,8.6-9.4,15.8-9.4,20.2c0,11.7,7.5,21.2,16.7,21.2c9.2,0,16.7-9.5,16.7-21.2c0-4.5-3.3-11.7-9.4-20.2l-0.9-1.2l-0.6,1.4
					c-1,2.3-3.3,3.8-5.8,3.8c-2.5,0-4.8-1.5-5.8-3.8l-0.6-1.4L198.3,109.4z M201.9,90v17c0,2,1.6,3.6,3.6,3.6c2,0,3.7-1.6,3.7-3.6
					V87.5L201.9,90z M211,76.2c-0.3,0-0.7,0-1,0.1l-14.6,5c-1,0.3-1.7,1-2.2,1.9c-0.5,0.9-0.5,1.9-0.2,2.9c0.3,1,1,1.7,1.9,2.2
					c0.5,0.3,1.1,0.4,1.7,0.4c0.4,0,0.8-0.1,1.2-0.2l14.3-4.9c2-0.7,3.1-2.8,2.4-4.8c-0.3-1-1-1.7-1.9-2.2
					C212.2,76.4,211.6,76.2,211,76.2z M211,65.3c-0.4,0-0.8,0.1-1.2,0.2l-14.3,4.9c-1,0.3-1.7,1-2.2,1.9c-0.4,0.9-0.5,1.9-0.2,2.9
					c0.5,1.5,2,2.6,3.6,2.6l0,0c0.3,0,0.7,0,1-0.1l14.5-4.9c2-0.7,3.1-2.8,2.4-4.8c-0.3-1-1-1.7-1.9-2.2
					C212.2,65.5,211.6,65.3,211,65.3z M211,54.4c-0.4,0-0.8,0.1-1.2,0.2l-14.3,4.9c-1,0.3-1.7,1-2.2,1.9c-0.4,0.9-0.5,1.9-0.2,2.9
					c0.3,1,1,1.7,1.9,2.2c0.5,0.3,1.1,0.4,1.7,0.4c0.4,0,0.8-0.1,1.2-0.2l14.3-4.9c2-0.7,3.1-2.8,2.4-4.8c-0.3-1-1-1.7-1.9-2.2
					C212.2,54.5,211.6,54.4,211,54.4z"/>
				<path class="st3" d="M205.6,162.1c-15.4,0-28-14.6-28-32.5c0-7.4,4.3-16.9,12.7-28.4c2.2-3,4.8-6.2,7.4-9.3l1.5-1.8v13.4
					l-0.2,0.2c-11.2,14.6-12.9,22.4-12.9,25.8c0,13.2,8.7,23.9,19.4,23.9s19.4-10.7,19.4-23.9c0-3.4-1.7-11.2-12.9-25.8l-0.2-0.2
					V90.2l1.5,1.8c2.7,3.1,5.2,6.3,7.4,9.3c8.4,11.4,12.7,21,12.7,28.4C233.5,147.5,221,162.1,205.6,162.1z"/>
			</g>
		</g>
	</g>
</g>
</svg>
