<?xml version="1.0" encoding="utf-8"?>
<!-- Generator: Adobe Illustrator 22.0.1, SVG Export Plug-In . SVG Version: 6.00 Build 0)  -->
<svg version="1.1" id="Layer_1" xmlns="http://www.w3.org/2000/svg" xmlns:xlink="http://www.w3.org/1999/xlink" x="0px" y="0px"
	 viewBox="0 0 30.8 89.7" style="enable-background:new 0 0 30.8 89.7;" xml:space="preserve">
<style type="text/css">
	.st0{fill:#FCC9A2;}
	.st1{fill:#FFFFFF;}
	.st2{fill:#F2F2F2;}
</style>
<g id="left_hand">
	<path class="st0" d="M2.9,64.4C4.8,73.5,9.5,87.5,18,89.7c2.2-0.7,5.3-6,2.7-13.3c-3.6-2.8-6-6.5-7.5-10.6L2.9,64.4L2.9,64.4z"/>
	<path class="st1" d="M7.9,19.1C14.7,4.2,24.1,0.6,30.8,0L28,15.4C5,32.7,15.1,64.5,14.1,65.9c-1.8,2.8-10.7,7.5-11,7
		C1.6,70.2-5.2,44.3,7.9,19.1z"/>
	<path class="st2" d="M0.2,66.7l2.2,8.1L15,67.3c0,0,0.5-6.4-0.2-6.7C14.2,60.4,0.2,66.7,0.2,66.7L0.2,66.7z"/>
</g>
</svg>
