<?xml version="1.0" encoding="utf-8"?>
<!-- Generator: Adobe Illustrator 22.0.1, SVG Export Plug-In . SVG Version: 6.00 Build 0)  -->
<svg version="1.1" id="Layer_1" xmlns="http://www.w3.org/2000/svg" xmlns:xlink="http://www.w3.org/1999/xlink" x="0px" y="0px"
	 viewBox="0 0 37.6 128" style="enable-background:new 0 0 37.6 128;" xml:space="preserve">
<style type="text/css">
	.st0{fill:#FFFFFF;}
	.st1{fill:#474A4D;}
</style>
<g id="left_leg">
	<path class="st0" d="M37.5,127.8c-1.2,2.4-31-18.5-30.9-18.6L6.2,105c0.7-3.7,5.4-1.6,8.8,0.2l2,1.1
		C17,106.3,38.7,125.4,37.5,127.8L37.5,127.8z"/>
	<path class="st1" d="M0.1,1.4c-0.1,2-0.2,6.2,0,14.7c0.2,9.1,4.8,71.9,6.1,88.8c0.2,2.4,2.1,4.3,4.5,4.6l0,0c2.6,0.3,5-1.5,5.5-4.1
		C23.7,64.6,22.6,10.9,23.7,0L1.5,0C0.7,0,0,0.7,0.1,1.4z"/>
</g>
</svg>
