<?xml version="1.0" encoding="utf-8"?>
<!-- Generator: Adobe Illustrator 22.0.1, SVG Export Plug-In . SVG Version: 6.00 Build 0)  -->
<svg version="1.1" id="Layer_1" xmlns="http://www.w3.org/2000/svg" xmlns:xlink="http://www.w3.org/1999/xlink" x="0px" y="0px"
	 viewBox="0 0 88 100.8" style="enable-background:new 0 0 88 100.8;" xml:space="preserve">
<style type="text/css">
	.st0{fill:#5A5D60;}
	.st1{fill:#3D4043;}
	.st2{fill:#F8B488;}
	.st3{fill:#F7BA92;}
	.st4{fill:#FCCDAA;}
	.st5{fill:#E06870;}
	.st6{fill:#E99C80;}
</style>
<g id="head">
	<path class="st0" d="M25.5,55.4c0,0-2.9,0-2.9,2.9v0.5c0,0,0,2.9,2.9,2.9h9.4c0,0,2.9,0,2.9-2.9v-0.5c0,0,0-2.9-2.9-2.9H25.5
		L25.5,55.4z"/>
	<path class="st0" d="M62.4,55.4c0,0,2.9,0,2.9,2.9v0.5c0,0,0,2.9-2.9,2.9H53c0,0-2.9,0-2.9-2.9v-0.5c0,0,0-2.9,2.9-2.9H62.4
		L62.4,55.4z"/>
	<path class="st1" d="M57.9,65.8c-2.6,0.2-5.1,2-5.3-0.4c-0.3-2.8,2.3-4.6,4.9-4.9c2-0.2,4.9,1.9,4.8,4.3
		C62.2,67.6,60.5,65.6,57.9,65.8L57.9,65.8z"/>
	<path class="st0" d="M25.5,55.4c0,0-2.9,0-2.9,2.9v0.5c0,0,0,2.9,2.9,2.9h9.4c0,0,2.9,0,2.9-2.9v-0.5c0,0,0-2.9-2.9-2.9H25.5
		L25.5,55.4z"/>
	<path class="st0" d="M62.4,55.4c0,0,2.9,0,2.9,2.9v0.5c0,0,0,2.9-2.9,2.9H53c0,0-2.9,0-2.9-2.9v-0.5c0,0,0-2.9,2.9-2.9H62.4
		L62.4,55.4z"/>
	<path class="st2" d="M9.3,59.5c-0.6,0.1-5.5-5.9-7.5-1.3C-0.1,63,5.8,74,9.9,74.7c4.1,0.7,4.8-2.5,5.1-3.9
		C15.4,69.4,9.3,59.5,9.3,59.5L9.3,59.5z"/>
	<path class="st3" d="M78.9,59.2c0.6,0.1,5.7-5.7,7.5-1c1.8,4.7-4.5,15.5-8.7,16.1c-4.1,0.6-4.8-2.7-5-4.1
		C72.5,68.8,78.9,59.2,78.9,59.2L78.9,59.2z"/>
	<path class="st4" d="M43.4,100.8c20.1,0,37.2-26.7,37.2-48.5c0-21.9-6.7-47.6-37.8-47.6C10.4,4.7,7.5,29.1,7.5,51
		C7.5,72.8,23.3,100.8,43.4,100.8L43.4,100.8z"/>
	<path class="st1" d="M30.1,65.8c2.6,0.2,5.1,2,5.3-0.4c0.3-2.8-2.3-4.6-4.9-4.9c-2-0.2-4.9,1.9-4.8,4.3
		C25.7,67.6,27.5,65.6,30.1,65.8L30.1,65.8z"/>
	<path class="st0" d="M43.5,0c0,0,0.9,0,1.1,0v0c61.3,1.7,43.1,53.7,32.5,68c-0.2,0.3-3.4,0-3.3-0.1c8.7-22.5,11.1-38.3-11-38.3
		c-6.4,0-8,7.2-18.1,7.2c-10.1,0-12.8-7.2-19.2-7.2c-22.2,0-19.8,15.7-11,38.3c0,0.1-3.2,0.3-3.3,0.1C0.4,53.7-17.8,1.7,43.5,0
		L43.5,0z"/>
	<path class="st0" d="M25.5,55.4c0,0-2.9,0-2.9,2.9v0.5c0,0,0,2.9,2.9,2.9h9.4c0,0,2.9,0,2.9-2.9v-0.5c0,0,0-2.9-2.9-2.9H25.5
		L25.5,55.4z"/>
	<path class="st1" d="M57.9,65.8c-2.6,0.2-5.1,2-5.3-0.4c-0.3-2.8,2.3-4.6,4.9-4.9c2-0.2,4.9,1.9,4.8,4.3
		C62.2,67.6,60.5,65.6,57.9,65.8L57.9,65.8z"/>
	<path class="st0" d="M62.4,55.4c0,0,2.9,0,2.9,2.9v0.5c0,0,0,2.9-2.9,2.9H53c0,0-2.9,0-2.9-2.9v-0.5c0,0,0-2.9,2.9-2.9H62.4
		L62.4,55.4z"/>
	<path class="st5" d="M55.7,81.9c0,0-0.2-1-2,0.4c0,0-5.5,3.4-13,3.4c-0.2,0-2.3,0-2.3,2c0,0,0.3,1.7,2.3,2
		C48.5,90.7,56.4,83.5,55.7,81.9L55.7,81.9z"/>
	<path class="st1" d="M24.3,81.5c2,0,6.3-5.1,10.1-7.3c3.3-1.9,8.2,2.5,9.3,3.6c1.1-1.1,6-5.4,9.3-3.6c3.8,2.1,8.1,7.3,10.1,7.3
		c0.5,0-15.6,6.3-19.4,2.5C39.9,87.8,23.8,81.5,24.3,81.5L24.3,81.5z"/>
	<path class="st6" d="M48.1,68.7l-1.2-4c0,0-2.8-9.4-5.6,0l-1.2,4c0,0-2.8,9.4,4,9.4C44.1,78.2,50.9,78.2,48.1,68.7L48.1,68.7z"/>
</g>
</svg>
