<?xml version="1.0" encoding="utf-8"?>
<!-- Generator: Adobe Illustrator 22.0.1, SVG Export Plug-In . SVG Version: 6.00 Build 0)  -->
<svg version="1.1" id="Layer_1" xmlns="http://www.w3.org/2000/svg" xmlns:xlink="http://www.w3.org/1999/xlink" x="0px" y="0px"
	 viewBox="0 0 61.7 96.5" style="enable-background:new 0 0 61.7 96.5;" xml:space="preserve">
<style type="text/css">
	.st0{fill:#FCC9A2;}
	.st1{fill:#FFFFFF;}
	.st2{fill:#00A8B7;}
	.st3{fill:#F2F2F2;}
</style>
<g id="body">
	<path class="st0" d="M49.3,27.9c-7-7.1-4.5-4.5-5.7-7c-1.1-2.6,2.1-9.8,3.9-14.4C49.2,2.1,39.9,0,30.6,0c-9.3,0-18.6,2.1-16.9,6.4
		c1.8,4.6,5,11.9,3.9,14.4c-1.1,2.6,2.5,0-4.5,7c0,3.1,9.7,12.2,15.3,12.2c0.1,0,4.2,0,4.2,0C32.7,40.1,49.3,36.6,49.3,27.9
		L49.3,27.9z"/>
	<g>
		<path class="st1" d="M47.4,22.4c-0.6-0.1-1.2-0.1-1.7-0.1c0,0,0,0,0,0c0,0-0.1,0-0.1,0c0,0.1-10.1,8.4-14.8,9.1
			c-0.3,0-0.5,0-0.8,0c-4.7-0.7-14.7-9-14.8-9.1c0,0-0.1,0-0.1,0c0,0,0,0,0,0c-0.4,0-0.9,0-1.4,0.1C12.1,22.5-11.4,54.5,7,90.2
			c0.7,1.4,1.1,3,2.6,3.5c4,1.1,12.2,2.9,20.8,2.9c0,0,0,0,0,0c0,0,0,0,0,0c8.7,0,16.8-1.8,20.9-2.9c1.6-0.4,1.8-2,2.6-3.4
			C73.8,55.6,49.2,22.5,47.4,22.4z"/>
	</g>
	<path class="st2" d="M35.6,31.5l-8.7,0c0,0-1.7,5.3,1,6.4l1.4,0.8l-3.4,47.5c0,0-0.1,1.1,0.8,1.9l1,1c0,0,0.9,0.9,2.1,0.2l2.7-1.6
		c0,0,1.2-0.7,1.2-1.8l-1.1-47.7C33.4,38.2,37.9,33,35.6,31.5L35.6,31.5z"/>
	<path class="st3" d="M46.9,21.4l-2-1.4c-0.8-0.8-1.6,0-1.6,0L30.6,30.5c0,0,0,0,0,0c0,0,0,0,0,0L18.1,20.3c0,0-0.8-0.7-1.6,0.1
		l-2.1,1.4c0,0-0.8,0.8-0.2,1.6c0,0,10.2,15,10.7,14.4c0.4-0.5,4.7-4.9,5.6-6.1c0.9,1.2,5,5.5,5.4,6C36.4,38.3,47.1,23,47.1,23
		C47.7,22.1,46.9,21.4,46.9,21.4L46.9,21.4z"/>
</g>
</svg>
