<?xml version="1.0" encoding="utf-8"?>
<!-- Generator: Adobe Illustrator 22.0.1, SVG Export Plug-In . SVG Version: 6.00 Build 0)  -->
<svg version="1.1" id="Layer_1" xmlns="http://www.w3.org/2000/svg" xmlns:xlink="http://www.w3.org/1999/xlink" x="0px" y="0px"
	 viewBox="0 0 644.4 130" style="enable-background:new 0 0 644.4 130;" xml:space="preserve">
<style type="text/css">
	.st0{fill:none;stroke:#2E8C45;stroke-width:3;stroke-linecap:round;stroke-linejoin:round;}
	.st1{fill:none;stroke:#2C6026;stroke-width:3;stroke-linecap:round;stroke-linejoin:round;}
	.st2{fill:none;stroke:#00A8B7;stroke-width:3;stroke-linecap:round;stroke-linejoin:round;}
	.st3{fill:none;stroke:#22557F;stroke-width:3;stroke-linecap:round;stroke-linejoin:round;}
	.st4{fill:none;stroke:#FFB867;stroke-width:3;stroke-linecap:round;stroke-linejoin:round;}
	.st5{fill:none;stroke:#EF9C58;stroke-width:3;stroke-linecap:round;stroke-linejoin:round;}
	.st6{fill:none;stroke:#E74C3C;stroke-width:3;stroke-linecap:round;stroke-linejoin:round;}
	.st7{fill:none;stroke:#C0392B;stroke-width:3;stroke-linecap:round;stroke-linejoin:round;}
</style>
<g>
	<g>
		<g>
			<g>
				<g>
					<path class="st0" d="M55.2,84.4C55.8,85.6,98.7,58,99.2,59c0.5,0.8-32.3,23-31.8,24.1c0.4,0.7,33.1-20.2,33.6-19.4
						c0.5,0.9-29.4,22.2-29,22.9c0.3,0.5,26.6-16.1,26.9-15.5c0.4,0.6-27.8,21.4-27.4,22.1c0.4,0.6,26.2-15.8,26.5-15.3
						c0.3,0.6-20,16.1-19.6,16.7c0.3,0.5,25.1-15.2,25.4-14.7c0.4,0.7-23.4,18.2-23,18.9c0.4,0.7,19.2-11.8,19.5-11.2
						c0.3,0.6-20.1,16.4-19.7,17.1c0.2,0.4,22.5-13.6,22.8-13.2c0.3,0.6-16.6,14.5-16.4,14.9c0.2,0.4,13.4-8.1,13.6-7.8"/>
					<path class="st0" d="M66.1,39.4c0.1,0.2,9.1-5.5,9.2-5.3c0.2,0.3-7.1,9.3-7,9.5c0.3,0.5,14.1-8.8,14.4-8.3
						c0.2,0.4-12.3,12.7-12,13.1c0.3,0.6,18.5-11.6,18.9-10.9c0.5,0.8-24.9,19.4-24.4,20.2c0.3,0.6,25.4-15.5,25.7-14.9
						c0.3,0.6-19,15.9-18.7,16.5c0.3,0.5,21.5-13.2,21.9-12.6"/>
					<path class="st0" d="M21.3,47.3c0.1,0.2,9.7-5.9,9.8-5.7c0.2,0.4-17.6,14.8-17.3,15.2c0.3,0.6,20.7-12.7,21.1-12.2
						c0.3,0.5-16.5,14.9-16.2,15.4c0.3,0.6,19.3-12,19.6-11.3c0.4,0.6-21.4,17.5-21.2,18c0.3,0.5,23.7-14.4,24-13.9
						c0.3,0.5-16.7,15-16.4,15.5c0.3,0.5,16.8-10.5,17.1-9.9c0.3,0.6-18.2,15.3-17.9,15.9c0.4,0.7,18.8-11.5,19-11
						c0.3,0.5-21.1,16.8-20.8,17.3c0.4,0.6,22.6-13.7,22.9-13.2c0.3,0.6-22.4,18-22,18.8c0.5,0.8,30.3-18.6,30.8-17.8
						c0.5,0.9-29.2,21.2-28.6,22.1c0.5,0.9,46.3-28.3,46.9-27.1c0.7,1.2-47.4,31.3-46.8,32.4c0.9,1.5,71.6-43.2,72.4-41.8
						C99,56,27.2,98.6,28.3,100.5c0.3,0.6,27.2-16.4,27.5-15.9c0.4,0.7-24.8,18.7-24.4,19.4c0.3,0.5,23.4-14.2,23.7-13.7
						c0.5,0.8-27.4,20.8-27,21.5c0.4,0.7,24.9-15.2,25.3-14.6c0.3,0.5-17.2,14.7-16.9,15.2c0.2,0.4,17.7-11,18-10.4
						c0.3,0.4-16.6,14.9-16.3,15.4c0.2,0.4,18.6-11.3,18.8-10.9"/>
					<path class="st1" d="M26.1,46.2c0.1,0.1,6.6-4,6.7-3.9c0.1,0.1,2.2,3.9,2.2,4c0,0.1,6.3-3.7,6.4-3.7c0.1,0.1-2.7,6.7-2.6,6.8
						c0,0.1,3.6-2.2,3.6-2.1c0.1,0.1,2.1,4.5,2.2,4.5c0,0.1,1.5-1,1.6-0.9c0.1,0.2-4.5,7.8-4.4,8c0,0.1,1-0.7,1-0.6
						c0.1,0.1,5,3.2,5.1,3.3c0,0.1,2.2-1.4,2.2-1.3c0.1,0.2-4.8,8.7-4.7,8.9c0,0.1,6.1-3.6,6.2-3.6c0.1,0.1,5,3.2,5.1,3.3
						c0.1,0.2,4.9-3.1,5-2.9c0.1,0.1,4.7,2.4,4.8,2.5c0,0.1,9.2-5.4,9.3-5.4"/>
					<path class="st1" d="M69.8,35.6c0.1,0.2,8.6-5.3,8.8-5.1c0.3,0.4-13.1,13.2-12.8,13.6c0,0.1,4.3-2.6,4.3-2.5
						c0.1,0.2-4.3,7.4-4.2,7.6c0,0.1,2.6-1.6,2.7-1.5c0.1,0.1,0.9,4.9,1,5c0,0.1,0.1-0.1,0.1-0.1c0.1,0.2-2.7,7.1-2.6,7.3
						c0,0.1,5.2-3.1,5.2-3"/>
					<path class="st1" d="M74.3,36.3c0.1,0.2,7.2-4.3,7.3-4.2c0.1,0.2,9.1,0.4,9.2,0.7c0,0.1,1.9-1.2,1.9-1.1
						c0.1,0.2-1.8,7.2-1.7,7.3c0,0.1,5.1-3,5.1-2.9c0.1,0.2-4.4,7.6-4.2,7.8c0,0.1,2.6-1.6,2.7-1.5c0.1,0.2-1.5,6.8-1.4,7
						c0,0.1,0.7-0.5,0.7-0.4c0.1,0.1,2.4,4.7,2.5,4.8c0,0.1,0.4-0.3,0.5-0.3c0.1,0.2-3,7.3-2.9,7.5c0,0.1,2.6-1.6,2.7-1.5
						c0.1,0.1-0.9,6.1-0.9,6.2c0,0.1,1.5-1,1.6-0.9c0.1,0.2-3,7.7-2.8,7.9c0,0.1,6.8-4,6.8-4c0.2,0.3-7.3,9.8-7.2,10.1
						c0,0.1,8.6-5.1,8.6-5c0.2,0.3-7.1,9.8-6.9,10c0,0.1,8.3-4.9,8.4-4.8c0.1,0.2-4.6,8.7-4.5,8.9c0,0.1,2.6-1.6,2.7-1.5
						c0.1,0.2-2.6,7.4-2.5,7.6c0,0.1,4.3-2.6,4.4-2.5c0.1,0.1-1.7,6.2-1.6,6.3c0.1,0.1,2.6-1.6,2.7-1.5"/>
					<path class="st1" d="M56.9,85.6c0.1,0.2,9.6-5.8,9.7-5.6c0.1,0.1,2.6,4,2.7,4.2c0.1,0.1,9.6-5.7,9.7-5.6
						c0.2,0.3-8,10.5-7.9,10.8c0,0.1,5.9-3.5,6-3.4c0.1,0.2-6.6,9.8-6.5,10c0,0.1,5.6-3.3,5.7-3.3c0.1,0.1,1.2,4.5,1.3,4.6
						c0,0.1,4.7-2.8,4.7-2.7c0.1,0.2-4.3,7.8-4.1,8c0,0.1,2.5-1.5,2.5-1.4c0.1,0.1,0.1,5.4,0.1,5.6c0,0.1,5.6-3.3,5.7-3.3
						c0.1,0.1,1.5,4.5,1.5,4.6c0.2,0.4,13.2-8,13.4-7.7"/>
					<path class="st1" d="M46.8,87.2c0,0.1,4-2.4,4-2.3c0.1,0.1,0.1,5.3,0.1,5.4c0,0.1,2.6-1.6,2.6-1.5c0.1,0.2-1.5,6.8-1.4,7
						c0,0.1,2.6-1.6,2.6-1.5c0.1,0.3-5.2,8.8-5.1,9c0,0.1,4.2-2.5,4.2-2.4c0.1,0.1,1.7,4.6,1.7,4.7c0,0.1,0.7-0.5,0.8-0.5"/>
					<path class="st1" d="M20.4,46.1c0.1,0.2,10-6.1,10.2-5.9c0.2,0.4-18.4,15.3-18.1,15.7c0.1,0.1,4.4-2.7,4.5-2.6
						c0.1,0.1-0.1,5.9,0,6c0,0.1,2.6-1.6,2.7-1.5c0.1,0.2-4.1,8-4,8.1c0,0.1,2.6-1.5,2.6-1.5c0.1,0.1,1.3,5.1,1.3,5.3
						c0,0.1,2.6-1.6,2.6-1.5c0.1,0.2-1.5,6.2-1.4,6.4c0,0.1,2.6-1.6,2.6-1.5c0.1,0.1-2.6,6.6-2.6,6.8c0,0.1,1.7-1.1,1.7-1
						c0.1,0.1-0.9,6.4-0.8,6.6c0,0.1,4.4-2.6,4.4-2.5c0.1,0.2-2.4,6.7-2.3,6.8c0,0.1,6.7-3.9,6.7-3.9c0.1,0.2-6.6,8.9-6.5,9.1
						c0,0.1,6.6-3.9,6.7-3.9c0.1,0.2-4.1,8.3-4,8.5c0,0.1,6.9-4.1,7-4c0.1,0.2-4,7.4-3.9,7.6c0,0.1,3.3-2,3.3-1.9
						c0.2,0.3-6.9,9.6-6.7,9.8c0,0.1,5.4-3.2,5.5-3.2c0.1,0.1,2.4,3.9,2.4,4c0,0.1,0.1-0.2,0.2-0.1c0.1,0.1-0.5,6.1-0.4,6.2
						c0.1,0.1,9-5.4,9.1-5.2c0.1,0.1-0.3,5.5-0.2,5.6c0.1,0.2,12.4-7.4,12.5-7.2"/>
				</g>
			</g>
			<g>
				<g>
					<path class="st2" d="M140.7,80.4c0.6,1.1,40.6-24.6,41.1-23.7c0.5,0.8-31.7,22.7-31.2,23.7c0.4,0.6,32.2-19.6,32.6-18.8
						c0.5,0.9-30.1,22.6-29.7,23.4c0.3,0.5,26.8-16.2,27.1-15.7c0.4,0.6-27.8,21.4-27.4,22.1c0.4,0.6,25.5-15.4,25.8-14.9
						c0.3,0.5-17.2,14.6-16.9,15.1c0.3,0.5,21.5-13,21.7-12.5c0.3,0.5-13.7,12.9-13.4,13.4c0.2,0.3,7.7-4.8,7.9-4.5"/>
					<path class="st2" d="M137.4,42.3c0.4,0.6,23.2-14.1,23.5-13.6c0.2,0.4-11.8,11.9-11.6,12.2c0.3,0.5,12.9-8.1,13.2-7.6
						c0.2,0.3-8.8,10.8-8.6,11.1c0.3,0.5,14.4-9.1,14.7-8.5c0.4,0.7-20.4,17-20.1,17.6c0.3,0.5,22.2-13.6,22.5-13
						c0.3,0.5-16.1,14.3-15.8,14.8c0.3,0.5,19.9-12.2,20.2-11.7c0.4,0.6-20.4,17.1-20,17.7c0.4,0.7,19.3-11.9,19.6-11.3"/>
					<path class="st2" d="M120.4,31.6c0.2,0.4,15.1-9.1,15.2-8.8c0.4,0.6-27.4,20.2-27,20.8c0.5,0.9,32.8-20.2,33.3-19.2
						c0.5,0.9-32.7,23.7-32.2,24.6c0.6,1.1,38.9-24,39.6-22.8C150,27.4,105.4,56.1,106,57c0.6,1,49.9-30.3,50.5-29.2
						c0.7,1.2-45,30.3-44.2,31.6c0.3,0.5,17.4-10.9,17.7-10.2c0.3,0.6-19.6,16-19.2,16.7c0.4,0.7,19-11.6,19.3-11.1
						c0.3,0.5-21.7,17.1-21.4,17.7c0.4,0.6,22.8-13.9,23.1-13.4c0.3,0.6-23,18.3-22.5,19.1c0.4,0.6,25.2-15.5,25.6-14.8
						c0.4,0.8-24.1,18.4-23.6,19.2c0.3,0.6,31.5-19.2,31.9-18.4c0.5,0.8-32.1,22.9-31.7,23.7c0.5,0.8,42.5-25.6,43-24.8
						c0.7,1.1-40.6,28.1-40,29.2c0.9,1.6,67.2-40.8,68-39.3c1,1.7-65,40.6-64,42.3c0.3,0.4,21.3-12.9,21.6-12.4
						c0.4,0.7-22.4,18.1-22.1,18.7c0.3,0.5,19.6-11.9,19.9-11.5"/>
					<path class="st3" d="M138.6,43.4c0.1,0.1,5.1-3.1,5.2-3c0.1,0.1,0.7,4.7,0.8,4.8c0,0.1,5.9-3.5,6-3.4c0.1,0.1-3.5,7.1-3.4,7.3
						c0,0.1,3.6-2.2,3.7-2.1c0.1,0.1,1.5,4.8,1.6,4.9c0,0.1,1.6-1,1.7-1c0.1,0.2-4.9,8-4.8,8.2c0,0.1,1.1-0.7,1.1-0.6"/>
					<path class="st3" d="M135,42.1c0.1,0.2,7.2-4.4,7.3-4.2c0.2,0.4-10.6,11.9-10.4,12.2c0,0.1,4.1-2.5,4.2-2.4
						c0.1,0.2-4.1,7.3-4,7.5c0,0.1,2.6-1.6,2.7-1.6c0.1,0.1,0.6,5.1,0.7,5.2c0,0.1,0.1-0.2,0.1-0.1c0.1,0.2-3,7.3-2.9,7.5
						c0,0.1,5.2-3.1,5.3-3.1c0.1,0.1,5,2.6,5.1,2.7c0.1,0.2,5.3-3.3,5.4-3.1c0.1,0.1,4.8,2.7,4.9,2.9c0,0,1.8-1.1,1.8-1.1"/>
					<path class="st3" d="M130.4,27.5c0.1,0.2,8.8-5.3,8.8-5.1c0.1,0.2,10.5-0.4,10.6-0.2c0.1,0.1,3.2-2,3.3-1.9
						c0.1,0.1,1.5,5.3,1.6,5.4c0,0.1,5.7-3.4,5.7-3.3c0.1,0.1-0.9,5.7-0.8,5.8c0,0.1,2.9-1.8,2.9-1.7c0.1,0.1,2.2,4.7,2.3,4.8
						c0,0.1,0.6-0.4,0.7-0.4c0.1,0.2,5.4,2.9,5.5,3.1c0,0.1,0.3-0.3,0.4-0.2c0.1,0.1-0.9,6.2-0.8,6.3c0,0.1,2.5-1.5,2.5-1.4
						c0.1,0.1,0.6,5.2,0.6,5.3c0,0.1,1.4-0.9,1.4-0.8c0.1,0.2-1.9,7.2-1.8,7.3c0,0.1,6.7-4,6.8-3.9c0.2,0.3-7,9.6-6.8,9.8
						c0,0.1,8.6-5.1,8.6-5c0.2,0.3-7.2,9.8-7.1,10.1c0,0.1,8.4-4.9,8.4-4.9c0.1,0.2-5.1,9-5,9.2c0,0.1,2.7-1.7,2.8-1.6
						c0.1,0.2-2.8,7.5-2.7,7.7c0,0.1,4.3-2.6,4.3-2.5c0.1,0.1-0.1,5.3,0,5.4c0,0.1,1.7-1,1.7-1c0.1,0.2-4.5,8.2-4.3,8.4
						c0,0.1,5.1-3.1,5.2-3"/>
					<path class="st3" d="M142.4,81.7c0.1,0.2,8.1-4.9,8.2-4.8c0.1,0.1,1.7,4.6,1.7,4.7c0,0.1,8.4-4.9,8.4-4.8
						c0.2,0.3-8.4,10.7-8.2,11c0,0.1,5.9-3.5,5.9-3.4c0.1,0.2-5.6,9.2-5.5,9.5c0,0.1,5.5-3.2,5.5-3.2c0.1,0.1,4.1,2.8,4.2,2.9
						c0,0.1,5.7-3.4,5.8-3.3c0.1,0.1,3.4,3.5,3.5,3.6c0.2,0.3,7.2-4.5,7.3-4.2"/>
					<path class="st3" d="M132.7,82.8c0,0.1,3.6-2.2,3.7-2.1c0.1,0.1,0.1,5.3,0.2,5.4c0,0.1,2.7-1.6,2.7-1.6
						c0.1,0.2-2.8,7.5-2.7,7.7c0,0.1,3.1-1.9,3.2-1.8"/>
					<path class="st3" d="M119.5,30.4c0.2,0.4,15.3-9.3,15.5-9c0.4,0.6-27.9,20.4-27.5,21.1c0.1,0.2,6.4-3.9,6.5-3.8
						c0.1,0.2-5.9,9.1-5.7,9.3c0.1,0.1,3.6-2.2,3.7-2.1c0.2,0.3-7.6,9.9-7.4,10.1c0,0.1,3.1-1.9,3.1-1.8c0.1,0.1-0.8,6.3-0.7,6.5
						c0,0.1,2.8-1.7,2.8-1.6c0.1,0.2-2.5,6.8-2.4,7c0,0.1,2.7-1.6,2.7-1.6c0.1,0.1-3.2,6.9-3.1,7.1c0,0.1,1.8-1.1,1.8-1
						c0.1,0.1-1.3,6.6-1.2,6.8c0,0.1,4.4-2.6,4.4-2.6c0.1,0.2-2.6,6.8-2.4,7c0,0.1,6.7-3.9,6.7-3.9c0.1,0.2-6.7,8.9-6.5,9.1
						c0,0.1,6.6-3.9,6.7-3.9c0.1,0.2-3.8,8.1-3.7,8.3c0,0.1,6.9-4,6.9-4c0.1,0.2-3.3,7-3.2,7.2c0,0.1,3.2-1.9,3.2-1.9
						c0.1,0.2-4.9,8.5-4.8,8.7c0,0.1,5.7-3.4,5.8-3.3c0.1,0.1,5.9,1.8,6,1.9c0.1,0.2,6.8-4.3,7-4"/>
				</g>
			</g>
			<g>
				<g>
					<path class="st4" d="M245.6,15c0.1,0.2,7.1-4.3,7.2-4.1c0.2,0.4-12.1,12.1-11.9,12.6c0.2,0.4,20.5-12.4,20.7-12
						c0.4,0.7-21.5,17.9-21.2,18.4c0.2,0.4,20.7-12.5,21-12.1c0.3,0.5-22.6,18.6-22.3,19.2c0.3,0.5,20.6-12.5,20.8-12
						c0.3,0.5-15.1,13.4-14.8,13.9c0.2,0.4,19.7-11.9,19.9-11.5c0.4,0.6-19.2,15.7-18.8,16.3c0.3,0.5,14.4-8.9,14.6-8.4"/>
					<path class="st4" d="M207,58.9c0.5,0.8,29.6-18,30-17.3c0.4,0.7-21.8,17.4-21.5,17.9c0.4,0.8,22.5-13.9,22.8-13.2
						c0.3,0.5-17,15.3-16.7,15.8c0.6,1,38-23.7,38.8-22.4c0.7,1.3-41.6,28.5-40.9,29.7c0.5,0.9,40.1-24.6,40.7-23.5
						c0.5,0.9-31,22.4-30.5,23.3c0.5,0.8,32.4-19.9,32.9-19c0.5,0.9-29.5,22-29,22.9c0.5,0.9,26.7-16.3,27.1-15.6
						c0.5,0.8-26.5,20-26.2,20.6c0.5,0.8,32.1-19.5,32.5-18.8c0.4,0.6-28.3,21.6-27.8,22.4c0.3,0.5,23.5-14.2,23.8-13.7
						c0.3,0.5-19.6,16.2-19.2,16.9c0.3,0.5,19.5-11.8,19.7-11.4c0.2,0.4-14.5,13.7-14.2,14.1c0.1,0.2,10.2-6.3,10.4-6"/>
					<path class="st4" d="M191.5,19.8c0.1,0.2,9.2-5.5,9.3-5.4c0.2,0.4-16.8,14.4-16.5,14.8c0.3,0.5,19.1-11.7,19.4-11.2
						c0.3,0.5-15.2,14.2-14.9,14.6c0.3,0.6,19-11.8,19.3-11.2c0.4,0.6-21.8,17.7-21.5,18.3c0.3,0.5,26.6-16.1,26.9-15.5
						c0.3,0.6-20.4,16.9-20,17.6c0.4,0.7,23.4-14.6,23.9-13.8c0.4,0.8-25.8,19.4-25.3,20.2c0.6,1,29.1-17.7,29.4-17
						c0.4,0.7-32.3,22.9-31.8,23.7c0.6,1,36.2-22,36.7-21.2c0.5,0.9-37.2,26-36.5,27.2C190.5,62,232.3,34.8,233,36
						c0.7,1.3-42.4,28.3-41.6,29.6c0.5,0.9,48.1-29.4,48.8-28.2c0.7,1.3-49.9,32.7-49.3,33.8c0.2,0.4,21.1-12.7,21.3-12.3
						c0.3,0.6-19.7,16.8-19.4,17.3c0.3,0.4,21.3-12.8,21.5-12.4c0.3,0.6-19.4,15.8-19.1,16.4c0.2,0.4,17.6-10.7,17.8-10.3
						c0.4,0.7-21.9,17.8-21.5,18.4c0.3,0.5,18.9-11.5,19.2-11.1c0.2,0.3-10,10.7-9.8,11.1c0.2,0.3,10.3-6.4,10.5-6.1"/>
					<path class="st5" d="M195.6,19.1c0.1,0.1,6-3.7,6.1-3.5c0.1,0.1,2,4,2,4.1c0,0.1,6.4-3.8,6.5-3.7c0.1,0.1-1.5,6-1.4,6.1
						c0,0.1,3.8-2.3,3.8-2.2c0.1,0.1,4.7,3,4.7,3.1c0,0.1,1.6-1,1.6-1c0.1,0.2-1.6,6.2-1.5,6.3c0,0.1,1-0.7,1.1-0.6
						c0.1,0.2,8.3,1.2,8.4,1.4c0,0.1,2.2-1.4,2.3-1.3c0.1,0.2-1.5,6.9-1.4,7c0,0.1,6.1-3.6,6.1-3.5c0.1,0.1-1,6.7-0.9,6.8
						c0,0.1,2.6-1.6,2.7-1.5c0.1,0.1-2.2,6.7-2.1,6.8c0,0.1,9.8-5.7,9.8-5.7c0.1,0.1,1.4,4.9,1.5,5c0.1,0.1-0.1-0.1,0,0
						c0.1,0.1-1.5,6.4-1.4,6.6c0,0,4.3-2.5,4.3-2.5"/>
					<path class="st5" d="M244.8,13.8c0.1,0.1,7-4.3,7.1-4.1c0.2,0.4-10.5,11.8-10.3,12.2c0,0.1,4.2-2.5,4.2-2.4
						c0.1,0.2-4.3,7.4-4.2,7.7c0,0.1,2.7-1.7,2.8-1.6c0.1,0.1,0.1,5.4,0.2,5.5c0,0.1,0.2-0.2,0.2-0.1c0.1,0.2-3.5,7.6-3.4,7.8
						c0,0.1,5.3-3.2,5.3-3.1"/>
					<path class="st5" d="M247.6,15.5c0.1,0.1,5.9-3.6,6-3.5c0.1,0.1,7.8,1.2,7.9,1.4c0,0.1,1.6-1,1.6-0.9c0.1,0.2-3.2,8-3.2,8.1
						c0,0.1,5.3-3.1,5.3-3.1c0.1,0.2-5.5,8.2-5.3,8.4c0,0.1,2.8-1.7,2.8-1.6c0.1,0.2-2.4,7.3-2.3,7.5c0,0.1,0.8-0.6,0.9-0.5
						c0.1,0.1,1.5,5.2,1.6,5.3c0,0.1,0.6-0.4,0.6-0.4c0.1,0.2-3.8,7.8-3.7,8c0,0.1,2.8-1.7,2.8-1.6c0.1,0.2-1.8,6.5-1.7,6.7
						c0,0.1,1.7-1.1,1.7-1c0.1,0.2-3.8,8.2-3.7,8.4c0,0.1,7-4.1,7-4c0.2,0.3-8.2,10.3-8,10.5c0,0.1,8.8-5.2,8.8-5.1
						c0.2,0.3-7.9,10.2-7.8,10.5c0,0.1,8.5-5,8.5-4.9c0.1,0.3-5.5,9.2-5.4,9.4c0,0.1,2.8-1.7,2.8-1.6c0.1,0.2-3.8,8.1-3.7,8.3
						c0,0.1,4.9-2.9,4.9-2.9"/>
					<path class="st5" d="M213.2,59.5c0,0.1,4.1-2.5,4.2-2.4c0.1,0.2-3.3,7.3-3.2,7.6c0,0.1,8.2-4.9,8.3-4.8
						c0.1,0.2-4.6,8.6-4.5,8.8c0,0.1,6-3.5,6-3.5c0.1,0.2-3.2,7.9-3.1,8.1c0,0.1,5.7-3.4,5.7-3.3c0.1,0.1,3.9,3,3.9,3.1
						c0,0.1,4.8-2.9,4.9-2.8c0.1,0.2-2.3,6.8-2.2,6.9c0,0.1,2.6-1.6,2.7-1.5c0.1,0.1,0.4,5.3,0.5,5.4c0,0.1,5.3-3.1,5.3-3.1
						c0.1,0.1-0.8,5.8-0.8,5.9c0,0.1,2.6-1.6,2.7-1.5c0.1,0.1,1.4,5.1,1.5,5.2c0.1,0.1,1.6-1,1.7-1c0.1,0.1,4.4,2.7,4.4,2.8
						c0.1,0.2,12-7.3,12.2-7"/>
					<path class="st5" d="M204.7,56.1c0,0,2.3-1.4,2.4-1.4c0.1,0.1,1.1,4.7,1.1,4.8c0.1,0.1,4.1-2.5,4.2-2.4
						c0.1,0.2-3.8,8.1-3.7,8.3c0,0.1,2.7-1.7,2.8-1.6c0.2,0.3-5.9,9.1-5.7,9.4c0,0.1,4.2-2.5,4.3-2.5c0.1,0.1,2.2,4.3,2.3,4.4
						c0,0.1,0.4-0.3,0.4-0.3c0.1,0.2-2.8,7.5-2.6,7.7c0,0.1,2.8-1.7,2.8-1.6"/>
					<path class="st5" d="M190.5,18.7c0.1,0.2,9.7-5.9,9.8-5.7c0.2,0.4-17.7,14.9-17.4,15.3c0.1,0.1,4.4-2.7,4.5-2.6
						c0.1,0.1-0.3,6-0.2,6.2c0,0.1,2.7-1.7,2.7-1.6c0.1,0.2-4.9,8.4-4.8,8.6c0,0.1,2.7-1.6,2.7-1.6c0.1,0.1,0.4,5.6,0.5,5.8
						c0,0.1,2.7-1.7,2.7-1.6c0.1,0.2-2.3,6.7-2.2,6.9c0,0.1,2.7-1.6,2.7-1.6c0.1,0.1-3.4,7.1-3.3,7.2c0,0.1,1.8-1.1,1.9-1.1
						c0.1,0.1-1.8,6.9-1.7,7c0,0.1,4.5-2.7,4.5-2.6c0.1,0.2-3.2,7.1-3,7.3c0,0.1,6.8-4,6.8-3.9c0.1,0.3-7.4,9.4-7.3,9.6
						c0,0.1,6.8-4,6.8-3.9c0.1,0.2-5,8.7-4.9,9c0,0.1,7.1-4.2,7.1-4.1c0.1,0.2-4.8,7.8-4.7,8c0,0.1,3.4-2.1,3.5-2
						c0.2,0.3-7.6,10-7.5,10.2c0,0.1,5.4-3.2,5.4-3.1c0.1,0.1,2.7,3.7,2.7,3.8c0,0.1,0.5-0.4,0.6-0.3c0.1,0.1,1.8,4.8,1.9,4.9
						c0.1,0.3,14.9-9,15.1-8.7"/>
				</g>
			</g>
			<g>
				<g>
					<path class="st6" d="M316.4,50.6c0.1,0.1,6.7-4,6.7-3.9c0.2,0.3-11,11.5-10.8,12c0.2,0.4,21.6-13.1,21.9-12.6
						c0.4,0.6-19.2,16.6-18.9,17.1c0.3,0.5,25.6-15.5,25.9-15c0.3,0.6-24.4,19.1-24.1,19.7c0.4,0.7,27.8-16.8,28.1-16.2"/>
					<path class="st6" d="M310.3,27c0.4,0.6,23.1-14,23.4-13.5c0.3,0.4-13.7,12.9-13.5,13.3c0.3,0.6,15.7-9.8,16-9.3
						c0.3,0.5-14.1,13.7-13.9,14.1c0.3,0.6,20-12.5,20.4-11.8c0.5,0.8-25.5,19.8-25.1,20.5c0.4,0.6,26.9-16.5,27.4-15.8
						c0.3,0.5-15,13.7-14.7,14.2c0.3,0.5,17.5-10.8,17.8-10.3c0.2,0.3-8.3,9.6-8.1,9.9c0.1,0.2,3.3-2.1,3.4-2"/>
					<path class="st6" d="M286.5,18.8c0.2,0.4,14.5-8.8,14.6-8.5c0.4,0.6-27.6,20.3-27.2,20.9c0.6,1,33.9-20.8,34.4-19.9
						c0.5,0.9-33.6,24.2-33.1,25.1c0.7,1.2,41.6-25.7,42.4-24.5c0.7,1.3-46.7,31.4-46.1,32.4c0.7,1.1,54.6-33.1,55.3-31.9
						C327.5,14,277,45.5,277.8,47c0.4,0.7,24.5-15.2,24.9-14.4c0.5,0.8-26.8,19.9-26.3,20.8c0.5,0.8,23.8-14.5,24.1-13.9
						c0.3,0.6-26.2,19.6-25.9,20.2c0.4,0.7,26-15.8,26.3-15.2c0.4,0.6-25.3,19.6-24.8,20.4c0.4,0.7,26.7-16.4,27.1-15.7
						c0.4,0.8-24.2,18.5-23.8,19.3c0.3,0.5,27.2-16.6,27.6-15.9c0.4,0.7-26,19.6-25.7,20.2c0.3,0.5,25.7-15.4,25.9-15
						c0.4,0.6-20.9,17.4-20.6,18c0.3,0.5,24.6-14.8,24.9-14.4c0.3,0.5-19.2,15.7-18.8,16.2c0.2,0.4,20.6-12.5,20.8-12
						c0.4,0.6-20.6,17.1-20.3,17.7c0.9,1.5,53.2-32.5,54-31.2c0.7,1.2-43,28.8-42.4,29.9c0.6,1,44.1-27.2,44.9-25.9
						c0.6,1-42.3,28.8-41.7,30c0.6,1.1,44.3-27.2,45-26c0.5,0.8-36.4,25.5-35.8,26.5c0.5,0.8,32.2-19.5,32.5-18.8"/>
					<path class="st7" d="M295.9,15c0.1,0.2,8.8-5.4,8.9-5.1c0.1,0.1,3.8,2.9,3.9,3c0.1,0.1,8.5-5.1,8.5-4.9
						c0.1,0.1,0.8,4.7,0.9,4.8c0.1,0.1,5.3-3.2,5.4-3.1c0.1,0.2,7,1.6,7,1.8c0.1,0.1,2.5-1.6,2.6-1.5c0.1,0.1-0.2,5.4-0.1,5.5
						c0,0.1,1.4-1,1.5-0.9c0.1,0.2,8.8,0.9,9,1.1c0,0.1,2.2-1.4,2.2-1.3c0.1,0.2-2.1,7.2-2,7.4c0,0.1,5.9-3.5,6-3.4
						c0.1,0.2-3.4,8-3.3,8.2c0,0.1,2.6-1.6,2.7-1.5c0.1,0.2-7,9.3-6.9,9.6c0.1,0.1,10.7-6.3,10.8-6.2"/>
					<path class="st7" d="M315.6,25.7c0.1,0.1,4.8-2.9,4.9-2.8c0.1,0.2-2.6,7.4-2.5,7.6c0,0.1,4.1-2.4,4.1-2.4
						c0.1,0.1-3.9,7.2-3.8,7.4c0,0.1,2.6-1.6,2.6-1.5c0.1,0.1,2.4,4.1,2.4,4.2c0,0.1,0.3-0.3,0.3-0.2c0.1,0.1,2.7,4.1,2.8,4.2
						c0.1,0.1,7.3-4.4,7.4-4.3c0.1,0.1,7.1,1.3,7.2,1.5c0.1,0.2,6.8-4.2,6.9-4"/>
					<path class="st7" d="M303.6,29.2c0.1,0.2,7.5-4.5,7.6-4.4c0.1,0.2-5.3,8.7-5.2,9c0,0.1,2.6-1.6,2.7-1.5
						c0.2,0.3-6.9,10-6.8,10.2c0,0.1,5.6-3.3,5.6-3.2c0.1,0.2-6.1,8.5-6,8.8c0,0.1,2.8-1.7,2.9-1.6c0.1,0.2-2.2,7.2-2.1,7.4
						c0,0.1,0.7-0.5,0.7-0.4c0.1,0.1,2.7,4.5,2.7,4.6c0,0.1,0.3-0.3,0.3-0.2c0.1,0.1-1.5,6.5-1.4,6.7c0,0.1,2.5-1.5,2.5-1.4
						c0.1,0.1,2,4.4,2.1,4.5c0,0.1,1.7-1.1,1.7-1c0.1,0.1,3,4.4,3.1,4.5c0.1,0.2,10.5-6.3,10.6-6.1"/>
					<path class="st7" d="M315.5,49.5c0.1,0.2,7.1-4.3,7.1-4.1c0.2,0.4-12.1,12.1-11.8,12.6c0,0.1,8.4-4.9,8.4-4.9
						c0.2,0.3-6.8,9.8-6.7,10.1c0,0.1,6.1-3.6,6.1-3.5c0.1,0.1-2.6,7.1-2.5,7.2c0.1,0.1,6.3-3.8,6.4-3.7"/>
					<path class="st7" d="M317.9,51.5c0.1,0.1,6.9-4.2,7-4c0.1,0.1,5.6,2.1,5.7,2.2c0.1,0.1,4.9-3,4.9-2.8c0.1,0.1,4.9,3.1,5,3.2
						c0,0.1,3.5-2.1,3.5-2c0.1,0.2-1.2,6.5-1.1,6.7c0,0.1,4-2.4,4.1-2.3c0.1,0.1,4,3.2,4.1,3.3c0,0.1,0.2-0.2,0.3-0.2
						c0.1,0.2-3,7.7-2.9,7.9c0.1,0.1,3.1-1.9,3.1-1.8c0.2,0.3-7.3,9.4-7.2,9.6c0.1,0.1,9.8-5.9,9.9-5.7"/>
					<path class="st7" d="M285.6,17.6c0.2,0.4,14.7-8.9,14.9-8.6c0.4,0.6-28.1,20.6-27.7,21.2c0.1,0.2,6.4-3.9,6.5-3.8
						c0.1,0.2-5.6,9-5.5,9.2c0.1,0.1,3.5-2.2,3.6-2.1c0.2,0.3-7.4,9.8-7.3,10c0,0.1,3.1-1.9,3.1-1.8c0.1,0.1-0.8,6.3-0.7,6.5
						c0,0.1,2.9-1.8,2.9-1.7c0.1,0.2-2.5,6.8-2.4,7c0,0.1,2.7-1.6,2.7-1.6c0.1,0.1-2.9,6.8-2.8,7c0,0.1,1.7-1.1,1.8-1
						c0.1,0.1-0.5,6.1-0.4,6.3c0,0.1,4.3-2.6,4.3-2.5c0.1,0.2-1.3,6.1-1.2,6.2c0,0.1,6.6-3.9,6.6-3.8c0.1,0.2-5,8-4.9,8.2
						c0,0.1,6.6-3.9,6.6-3.8c0.1,0.2-1.6,6.9-1.5,7c0,0.1,6.9-4.1,7-4c0.1,0.1-1.3,5.9-1.2,6c0,0.1,3.5-2.1,3.5-2
						c0.1,0.2-3.6,7.7-3.5,7.9c0.1,0.1,5.9-3.5,5.9-3.4c0.1,0.1,5.1,2.3,5.1,2.4c0,0.1,1-0.7,1.1-0.6c0.1,0.1,1.3,5.1,1.4,5.2
						c0.1,0.1,9.3-5.5,9.4-5.4c0.1,0.1-1.4,6.4-1.3,6.6c0.1,0.1,9.6-5.7,9.6-5.6c0.1,0.1,1.7,4.5,1.8,4.6c0.4,0.6,21.7-13.3,22-12.7
						"/>
				</g>
			</g>
			<g>
				<g>
					<path class="st0" d="M427.3,51.8c0.4,0.7,28.3-17.1,28.6-16.5c0.3,0.5-23.2,18.4-22.8,19.1c0.3,0.6,26-15.9,26.4-15.2
						c0.6,1-30.6,23.1-30.2,23.7c0.3,0.6,29.3-17.9,29.7-17.2c0.4,0.7-27.5,20.1-27,21c0.3,0.6,22.5-14,22.9-13.2
						c0.5,0.8-27.2,20.8-26.7,21.6c0.4,0.7,24.6-15,24.9-14.4c0.4,0.8-23.2,18.6-22.8,19.4c0.4,0.8,23.6-14.5,24-13.9
						c0.4,0.6-25.8,19.7-25.3,20.5c0.3,0.6,23.1-14.3,23.5-13.6c0.3,0.6-18.2,15.5-17.9,16c0.2,0.4,16.8-10.3,17.1-9.9
						c0.2,0.3-10,11.3-9.8,11.7c0.1,0.2,10.6-6.3,10.7-6.2"/>
					<path class="st0" d="M429.2,19.7c0.1,0.2,9.1-5.5,9.2-5.3c0.3,0.5-18.9,15.8-18.5,16.4c0.3,0.6,28.7-17.5,29.1-16.8
						c0.6,1.1-36.4,26-35.9,26.9c0.5,0.8,38.8-23.5,39.2-22.6c0.6,1-47.5,32.2-46.8,33.3c0.7,1.3,48.1-29.2,48.7-28.1"/>
					<path class="st0" d="M379.1,48.5c0.3,0.5,20.7-12.6,21-12.1c0.3,0.5-14.6,13.4-14.4,13.8c0.3,0.5,13.4-8.3,13.7-7.9
						c0.2,0.4-9.8,11.4-9.6,11.7c0.3,0.4,13.6-8.6,14-8.1c0.4,0.6-18.5,16-18.2,16.5c0.3,0.4,19.4-11.9,19.7-11.4
						c0.2,0.4-11.7,11.9-11.5,12.3c0.9,1.5,62.7-38.4,63.7-36.8c1,1.8-62.9,40-61.8,41.9c1.1,1.9,59.2-36,60-34.6
						c1,1.8-61.5,39.2-60.7,40.5c0.5,0.9,34.3-20.9,34.8-20.1c0.4,0.7-32.2,23.7-31.7,24.6c0.3,0.5,21.2-12.8,21.4-12.4
						c0.2,0.4-17,14.9-16.7,15.4c0.2,0.3,11.4-6.9,11.6-6.7"/>
					<path class="st0" d="M369.1,15.4c0.1,0.2,8.9-5.4,9-5.2c0.2,0.4-17.6,14.8-17.3,15.2c0.3,0.6,20.6-12.7,21-12.1
						c0.3,0.5-17.7,15.5-17.4,16.1c0.4,0.7,22.3-13.8,22.7-13.1c0.4,0.7-26,20-25.7,20.7c0.4,0.6,29.7-18,30.1-17.4
						c0.4,0.7-24.4,19.1-23.9,19.9c0.4,0.7,25.1-15.7,25.6-14.8c0.5,0.8-28.3,20.7-27.8,21.6c0.6,1,29.3-17.8,29.7-17.1
						c0.4,0.7-33.2,23.4-32.8,24.2c0.6,1,35.1-21.3,35.5-20.5c0.5,0.9-36.8,25.8-36.2,26.9c0.3,0.5,20-12.3,20.3-11.7
						c0.4,0.6-19.9,16.2-19.5,16.8c0.2,0.4,22.2-13.5,22.5-13c0.4,0.6-24,18.5-23.7,19c0.2,0.4,22.2-13.3,22.4-13
						c0.4,0.6-21.5,17.8-21.2,18.4c0.3,0.5,22.3-13.4,22.5-13c0.3,0.6-20.2,16.2-19.8,16.8c0.2,0.4,17.6-10.7,17.9-10.3
						c0.3,0.6-19,16.2-18.8,16.8c0.2,0.4,15.4-9.3,15.6-9"/>
					<path class="st1" d="M373.3,14.7c0.1,0.2,5.6-3.4,5.7-3.3c0.1,0.1,5.7,2.3,5.8,2.4c0.1,0.1,2.4-1.5,2.4-1.4
						c0.1,0.1,6.7,1.4,6.8,1.5c0,0.1,2.2-1.3,2.2-1.3c0.1,0.2-2.5,7.5-2.5,7.7c0,0.1,4.5-2.7,4.5-2.6c0.1,0.1,1.6,4.8,1.6,4.9
						c0,0.1,1.2-0.8,1.3-0.7c0.1,0.2-3.6,8.1-3.5,8.3c0,0.1,2.5-1.5,2.5-1.5c0.1,0.2-1.4,6.1-1.4,6.2c0,0.1,0.8-0.5,0.8-0.5
						c0.1,0.1,1.6,4.6,1.7,4.7c0,0.1,2.5-1.5,2.5-1.5c0.1,0.1-0.6,6.3-0.5,6.4c0,0.1,2.5-1.5,2.5-1.5c0.1,0.1-0.7,6.1-0.6,6.2
						c0,0.1,2.5-1.5,2.5-1.5c0.1,0.1-1.3,6.4-1.3,6.5c0,0.1,4.3-2.5,4.3-2.5"/>
					<path class="st1" d="M428.8,18.3c0.1,0.2,8.3-5.1,8.4-4.9c0.2,0.3-14.1,13.1-13.8,13.5c0.1,0.1,2.2-1.4,2.3-1.3
						c0.2,0.3-9.6,10.5-9.5,10.8c0.1,0.1,5.5-3.4,5.6-3.2c0.2,0.3-11.1,11.9-10.9,12.3c0.1,0.1,5.6-3.4,5.7-3.3"/>
					<path class="st1" d="M433.3,18.9c0.1,0.1,6.1-3.7,6.2-3.6c0.1,0.1,2.5,3.7,2.5,3.8c0.1,0.1,6.9-4.1,7-4
						c0.1,0.1-0.9,5.7-0.9,5.8c0,0.1,3.8-2.3,3.8-2.2c0.1,0.1,4.1,3.3,4.1,3.4c0,0.1,1.4-0.9,1.4-0.8c0.1,0.2-3.7,7.3-3.6,7.5
						c0,0.1,1-0.7,1-0.6c0.1,0.1,4,3.8,4,3.9c0.1,0.1,2.5-1.5,2.5-1.5c0.2,0.3-7,9.9-6.9,10.2c0.1,0.1,6.5-3.9,6.6-3.8
						c0.1,0.2-5.6,9.2-5.5,9.4c0,0.1,0-0.1,0.1-0.1c0.1,0.2-5.3,8.4-5.1,8.6c0,0.1,10.2-6,10.2-5.9c0.2,0.3-7.6,9.9-7.4,10.2
						c0,0.1,3-1.9,3.1-1.8c0.1,0.2-5.6,8.8-5.5,9c0,0.1,6.8-4,6.8-3.9c0.2,0.3-9.7,11.3-9.5,11.7c0,0.1,3.2-2,3.3-1.9
						c0.1,0.1,1.3,5,1.4,5.1c0,0.1,0.7-0.5,0.8-0.4c0.2,0.3-8.2,9.6-8.1,9.9c0,0.1,3.6-2.2,3.6-2.1"/>
					<path class="st1" d="M429.7,55.3c0,0.1,3.9-2.4,3.9-2.3c0.2,0.3-6,9.3-5.8,9.6c0,0.1,4.3-2.6,4.3-2.5c0.1,0.2-5.2,7.9-5.1,8.2
						c0.1,0.1,3-1.8,3-1.8c0.1,0.1-1,6-0.9,6.1c0,0.1,0.4-0.4,0.5-0.3c0.1,0.2-4.4,8.1-4.3,8.3c0,0.1,5.4-3.2,5.4-3.1
						c0.1,0.1-0.7,5.9-0.6,6c0,0.1,1.1-0.8,1.2-0.7c0.1,0.2-1.2,6.5-1.1,6.7c0,0.1,0.3-0.3,0.4-0.2c0.1,0.2,7.4,1.5,7.5,1.6
						c0.1,0.1,2.8-1.8,2.9-1.7"/>
					<path class="st1" d="M425.2,51.6c0,0,2.9-1.7,3-1.7c0.1,0.1-2.3,7.1-2.2,7.2c0.1,0.1,4.2-2.6,4.3-2.5
						c0.3,0.5-13.6,13.7-13.4,14c0.1,0.1,7.6-4.6,7.7-4.4c0.2,0.3-9.9,10.6-9.7,10.9c0.1,0.1,1.2-0.9,1.3-0.8"/>
					<path class="st1" d="M384.8,51.5c0,0.1,3.9-2.3,4-2.3c0.1,0.2-5.1,8.4-5,8.6c0,0.1,8.1-4.8,8.1-4.7c0.2,0.3-6.6,9.7-6.5,10
						c0,0.1,5.8-3.4,5.8-3.4c0.1,0.2-5.2,9-5.1,9.2c0,0.1,5.5-3.3,5.6-3.2c0.1,0.1,2.2,3.9,2.3,4c0,0.1,4.7-2.8,4.7-2.7
						c0.1,0.2-3.8,7.6-3.7,7.8c0,0.1,2.5-1.5,2.5-1.4c0.1,0.1-0.8,5.9-0.7,6.1c0,0.1,5.1-3,5.1-3c0.1,0.1-0.8,5.8-0.7,5.9
						c0.1,0.1,3.3-2,3.3-1.9"/>
					<path class="st1" d="M377.6,43.3c0,0,2.2-1.3,2.2-1.2c0.1,0.1,0.6,5,0.6,5.1c0,0.1,2.8-1.7,2.8-1.6c0.1,0.2-3.2,7.7-3.1,7.9
						c0,0.1,2.9-1.8,3-1.7c0.2,0.3-6.9,9.7-6.7,9.9c0,0.1,4.4-2.7,4.5-2.6c0.1,0.1,1.2,4.8,1.3,5c0,0.1,0.6-0.5,0.7-0.4
						c0.1,0.2-3.6,8-3.5,8.2c0.1,0.1,2.9-1.8,3-1.7c0.1,0.2-4.4,7.8-4.3,8c0.1,0.1,8.2-4.8,8.2-4.8"/>
					<path class="st1" d="M368.1,14.3c0.1,0.2,9.3-5.6,9.4-5.4c0.2,0.4-18.3,15.2-18,15.6c0.1,0.1,4.8-2.9,4.9-2.8
						c0.1,0.2-1.8,6.8-1.7,7c0,0.1,2.9-1.8,3-1.7c0.1,0.2-5.9,9-5.8,9.2c0,0.1,2.9-1.8,2.9-1.7c0.1,0.1-0.6,6.2-0.5,6.3
						c0,0.1,2.9-1.8,2.9-1.7c0.1,0.2-3.2,7.2-3.1,7.4c0,0.1,2.9-1.8,2.9-1.7c0.1,0.2-4.3,7.6-4.2,7.7c0,0.1,2-1.3,2.1-1.2
						c0.1,0.2-2.8,7.4-2.7,7.6c0,0.1,4.7-2.8,4.7-2.7c0.1,0.2-4.1,7.6-4,7.8c0,0.1,7-4.1,7-4.1c0.2,0.3-8.3,9.9-8.2,10.1
						c0,0.1,7-4.1,7-4.1c0.1,0.3-6,9.3-5.8,9.5c0,0.1,7.2-4.3,7.2-4.2c0.1,0.2-5,7.9-4.9,8.1c0,0.1,3.3-2,3.4-1.9
						c0.1,0.3-5.7,8.9-5.6,9.2c0,0.1,5.8-3.4,5.8-3.4c0.1,0.1,5.7,1.9,5.8,2c0.1,0.2,8.2-5.1,8.4-4.8"/>
				</g>
			</g>
			<g>
				<g>
					<path class="st2" d="M493,78.6c0.7,1.2,46.5-28.2,47.1-27.2c0.6,1.1-43.1,28.8-42.3,30.2c0.5,0.9,42.9-26.3,43.6-25.2
						c0.6,1.1-36.2,26-35.7,26.8c0.4,0.6,32-19.3,32.3-18.7c0.5,0.8-35,25.3-34.5,26.2c0.5,0.8,31.1-18.9,31.5-18.2
						c0.4,0.8-25.8,19.2-25.3,20c0.4,0.6,28.7-17.4,29.1-16.8c0.5,0.8-25.8,19.5-25.4,20.3c0.4,0.7,19.2-11.8,19.5-11.3
						c0.3,0.5-17.1,14.8-16.8,15.4c0.2,0.3,17-10.3,17.2-9.9"/>
					<path class="st2" d="M499,42.5c0.3,0.6,21.9-13.3,22.2-12.8c0.2,0.4-10.7,11.3-10.5,11.5c0.3,0.5,11.7-7.3,12-6.9
						c0.2,0.3-7.1,9.9-7,10.2c0.2,0.4,12.7-8,13-7.5c0.4,0.6-19.5,16.5-19.1,17.1c0.3,0.5,21.4-13.1,21.7-12.5
						c0.3,0.5-16.8,14.7-16.5,15.2c0.3,0.5,20.4-12.5,20.7-12c0.4,0.7-22.7,18.3-22.3,19.1c0.4,0.7,21.2-13,21.5-12.4"/>
					<path class="st2" d="M481.4,30.7c0.2,0.3,13-7.9,13.2-7.6c0.3,0.6-26.6,19.7-26.2,20.4c0.5,0.9,31.9-19.6,32.4-18.7
						c0.5,0.9-32.1,23.3-31.5,24.3c0.6,1.1,38.4-23.7,39-22.5c0.7,1.2-43.9,29.9-43.4,30.9c0.6,1,50-30.4,50.7-29.3
						c0.7,1.2-46,30.8-45.2,32.1c0.4,0.6,21.7-13.5,22.1-12.8c0.4,0.7-25.1,19-24.6,19.8c0.5,0.8,22.8-13.9,23.1-13.3
						c0.3,0.6-26.7,19.8-26.3,20.5c0.4,0.7,26.3-15.9,26.6-15.4c0.4,0.7-27.6,20.8-27.1,21.7c0.4,0.7,28.1-17.3,28.6-16.5
						c0.5,0.9-27.7,20.4-27.2,21.3c0.4,0.7,37.6-23,38.2-22c0.6,1-38,26.2-37.5,27c0.5,0.9,43.5-26.2,44-25.4
						c0.6,1.1-38.6,27.1-38,28.1c0.3,0.4,21.6-13,21.9-12.6c0.2,0.4-12.3,11.9-12.1,12.3c0.1,0.2,8.8-5.3,8.9-5.1"/>
					<path class="st3" d="M500.2,43.7c0.1,0.1,4.7-2.9,4.8-2.8c0.1,0.1,1.3,4.4,1.3,4.5c0,0.1,6-3.6,6.1-3.5
						c0.1,0.1-3.5,7.1-3.4,7.3c0,0.1,3.7-2.2,3.7-2.1c0.1,0.1,0.4,5.4,0.5,5.5c0.1,0.1,2-1.2,2-1.2c0.2,0.3-6.9,9.1-6.8,9.3
						c0,0.1,1.6-1,1.6-0.9"/>
					<path class="st3" d="M497.3,41.9c0.1,0.1,6.7-4.1,6.8-3.9c0.2,0.4-11,12.1-10.8,12.5c0.1,0.1,4.5-2.7,4.6-2.6
						c0.1,0.2-5.9,8.3-5.7,8.5c0.1,0.1,3.1-1.9,3.2-1.8c0.1,0.1-1.4,6.2-1.3,6.4c0,0.1,0.6-0.5,0.6-0.4c0.1,0.2-0.8,6.1-0.8,6.2
						c0.1,0.1,6.6-3.9,6.6-3.8c0.1,0.1,4.7,2.8,4.8,2.9c0.1,0.1,2.7-1.7,2.8-1.6c0.1,0.1,2.9,4.2,3,4.3c0,0,1.3-0.8,1.3-0.8"/>
					<path class="st3" d="M489.5,27.8c0.1,0.2,8.6-5.2,8.7-5c0.1,0.2,10.4-0.4,10.6-0.2c0,0.1,3.2-2,3.2-1.9
						c0.1,0.1,1.6,5.2,1.7,5.3c0,0.1,5.8-3.5,5.9-3.4c0.1,0.1-0.8,5.6-0.7,5.8c0,0.1,2.8-1.8,2.9-1.7c0.1,0.1,2.3,4.7,2.3,4.8
						c0,0.1,0.7-0.5,0.7-0.4c0.1,0.2,5.5,2.8,5.6,3c0,0.1,0.3-0.3,0.3-0.2c0.1,0.1-0.7,6.1-0.6,6.2c0,0.1,2.5-1.5,2.5-1.4
						c0.1,0.1,0.6,5.2,0.7,5.3c0,0.1,1.4-0.9,1.4-0.8c0.1,0.2-2.1,7.3-2,7.4c0,0.1,6.8-4,6.8-3.9c0.2,0.3-7.4,9.8-7.2,10.1
						c0,0.1,8.7-5.1,8.7-5c0.2,0.3-7.9,10.2-7.8,10.5c0,0.1,8.6-5,8.6-5c0.1,0.2-4.5,8.7-4.4,8.9c0,0.1,0-0.1,0.1,0
						c0.1,0.2-3.6,7.9-3.5,8.2c0,0.1,4.7-2.8,4.8-2.8c0.1,0.1-2,6.4-1.9,6.6c0.1,0.1,2.2-1.3,2.2-1.3c0.2,0.3-6.4,9.3-6.3,9.6
						c0,0.1,5.6-3.3,5.7-3.3c0.2,0.3-11.5,12.5-11.3,12.8c0.1,0.1,9.1-5.4,9.2-5.3"/>
					<path class="st3" d="M494.3,80.3c0.1,0.1,5.6-3.3,5.6-3.2c0.1,0.1-1,6.1-0.9,6.2c0.1,0.1,9.6-5.7,9.7-5.6
						c0.1,0.2-4.8,8.7-4.7,8.9c0,0.1,6.5-3.8,6.5-3.8c0.1,0.3-8.8,11-8.6,11.2c0,0.1,5.7-3.4,5.8-3.3c0.1,0.1,1.4,4.4,1.5,4.5
						c0,0.1,4.7-2.8,4.7-2.7c0.1,0.1,0,5.5,0.1,5.6c0.1,0.1,0-0.1,0.1,0c0.1,0.1,3,3.7,3.1,3.9c0.1,0.1,7-4.2,7-4.1"/>
					<path class="st3" d="M486,80.3c0,0,3.1-1.8,3.1-1.8c0.1,0.1-0.9,5.8-0.8,5.9c0,0.1,3.1-1.9,3.2-1.8"/>
					<path class="st3" d="M480.6,29.5c0.2,0.3,13.2-8,13.4-7.7c0.3,0.6-27.1,20-26.7,20.6c0.1,0.2,6.7-4.1,6.8-3.9
						c0.1,0.3-6.4,9.4-6.2,9.6c0.1,0.1,3.8-2.3,3.8-2.2c0.2,0.3-8.3,10.3-8.1,10.5c0,0.1,3.3-2,3.3-1.9c0.1,0.2-1.7,6.8-1.6,7
						c0,0.1,3-1.9,3.1-1.8c0.1,0.2-3.8,7.5-3.7,7.7c0.1,0.1,3-1.8,3-1.8c0.1,0.2-4.6,7.7-4.5,7.9c0,0.1,2.1-1.3,2.1-1.2
						c0.1,0.2-2.8,7.4-2.7,7.6c0,0.1,4.6-2.8,4.7-2.7c0.1,0.2-3.6,7.3-3.4,7.5c0,0.1,6.8-4,6.8-3.9c0.1,0.2-6.7,9-6.6,9.2
						c0,0.1,6.6-3.9,6.6-3.8c0.1,0.2-1.8,7-1.8,7.2c0,0.1,7.3-4.3,7.3-4.2c0.1,0.1,0.3,5,0.4,5.1c0.1,0.1,5.3-3.2,5.3-3.1"/>
				</g>
			</g>
			<g>
				<g>
					<path class="st4" d="M611.6,46.4c0.1,0.1,6.7-4,6.8-3.9c0.2,0.4-12.8,12.5-12.5,12.9c0.2,0.4,20.5-12.4,20.8-12
						c0.4,0.7-23.5,19-23.2,19.6c0.3,0.5,23.5-14.2,23.8-13.7c0.4,0.6-27.5,21.2-27.1,21.9c0.3,0.6,24.6-14.9,24.9-14.4"/>
					<path class="st4" d="M564.1,77.6c0.4,0.7,28-17,28.4-16.4c0.4,0.7-21.4,17.2-21.1,17.7c0.4,0.7,20.9-12.9,21.3-12.3
						c0.3,0.5-16.7,15.1-16.5,15.6c0.4,0.6,21.3-13.3,21.8-12.6c0.5,0.8-25.7,19.9-25.2,20.6c0.4,0.6,27.3-16.7,27.7-16
						c0.3,0.6-19.1,15.9-18.8,16.5c0.6,1,41.8-25.6,42.5-24.5c0.7,1.2-40.6,28-39.9,29.2c0.7,1.2,35.5-21.6,36-20.8
						c0.6,1.1-36.8,25.6-36.3,26.4c0.6,1,40.3-24.6,40.8-23.6c0.5,0.8-38.2,27-37.6,28.1c0.4,0.7,31.2-18.8,31.5-18.2
						c0.4,0.7-29.1,21.4-28.6,22.3c0.4,0.8,26.9-16.4,27.3-15.7c0.4,0.6-25.1,19.4-24.6,20.2c0.3,0.5,19.3-11.9,19.6-11.3
						c0.2,0.4-16.2,14.7-15.9,15.3c0.2,0.3,21-12.6,21.2-12.2"/>
					<path class="st4" d="M557.6,36.4c0.1,0.2,8.3-5,8.4-4.9c0.2,0.4-16.6,14.2-16.3,14.7c0.3,0.5,18-11,18.3-10.5
						c0.3,0.5-15.6,14.4-15.4,14.9c0.3,0.6,19.5-12.1,19.9-11.5c0.4,0.7-24.2,19-23.8,19.6c0.3,0.6,28-17,28.4-16.4
						c0.4,0.7-23.7,18.7-23.3,19.5c0.4,0.7,25.4-15.8,25.9-15c0.5,0.9-29.5,21.4-29,22.3c0.6,1.1,31.5-19.1,31.9-18.4
						c0.5,0.8-36.3,25.1-35.8,26c0.6,1.1,39-23.7,39.5-22.8c0.6,1-41.9,28.5-41.2,29.8c0.7,1.2,45.7-28.1,46.5-26.8
						c0.8,1.4-47.5,31-46.6,32.5c0.2,0.4,24.5-14.9,24.8-14.3c0.4,0.7-27.2,20.2-26.8,20.9c0.3,0.4,24.4-14.7,24.7-14.2
						c0.4,0.7-23.4,18.8-23,19.4c0.3,0.5,23.1-13.9,23.3-13.5c0.3,0.5-18.4,15.2-18.1,15.8c0.2,0.3,15-9.1,15.2-8.8
						c0.2,0.4-12.8,12.8-12.6,13.2c0.1,0.1,7.5-4.5,7.6-4.4"/>
					<path class="st5" d="M560.9,36.2c0.1,0.1,5.2-3.2,5.2-3c0.1,0.1,1.9,4.1,2,4.2c0,0.1,6.6-3.9,6.6-3.8c0.1,0.1-1.7,6.1-1.6,6.2
						c0,0.1,3.6-2.2,3.7-2.1c0.1,0.1,3.9,3.4,4,3.5c0,0.1,1.5-0.9,1.5-0.9c0.1,0.2-2.7,6.8-2.6,6.9c0,0.1,0.9-0.6,0.9-0.5
						c0.1,0.1,7.1,2,7.2,2.1c0,0.1,2-1.3,2.1-1.2c0.1,0.2-2.7,7.6-2.6,7.7c0,0.1,6-3.5,6-3.5c0.1,0.2-2.2,7.3-2.1,7.5
						c0,0.1,2.5-1.5,2.5-1.4c0.1,0.1-3.3,7.3-3.2,7.5c0,0.1,9.6-5.6,9.6-5.6c0.1,0.2-3.4,7.6-3.3,7.8c0,0.1,2.5-1.5,2.5-1.4
						c0.1,0.1-1.5,6.5-1.4,6.7c0,0.1,6.2-3.7,6.3-3.6c0.1,0.2-5.3,9-5.2,9.2c0,0,1.9-1.2,2-1.1"/>
					<path class="st5" d="M610.8,45.2c0.1,0.1,6.7-4.1,6.8-3.9c0.2,0.4-11.1,12.1-10.9,12.5c0.1,0.1,4.6-2.8,4.7-2.7
						c0.1,0.2-6.5,8.6-6.3,8.9c0.1,0.1,3.3-2.1,3.4-2c0.1,0.2-2.3,6.7-2.2,6.8c0,0.1,0.8-0.6,0.8-0.5"/>
					<path class="st5" d="M613.2,47.1c0.1,0.1,5.4-3.2,5.4-3.1c0.1,0.1,8,1.1,8.1,1.3c0,0.1,1.8-1.1,1.8-1.1
						c0.1,0.2-2.8,7.7-2.7,7.9c0,0.1,5.3-3.2,5.4-3.1c0.1,0.2-7,9-6.8,9.3c0,0.1,3.4-2.1,3.4-2c0.1,0.2-5,8.7-4.9,9
						c0,0.1,1.4-0.9,1.5-0.9c0.1,0.2-1.1,6.7-1,6.8c0.1,0.1,1.2-0.8,1.3-0.7c0.1,0.2-6.4,9.2-6.2,9.5c0,0.1,3.4-2.1,3.4-2
						c0.1,0.2-4.3,7.9-4.1,8.1c0,0.1,2.3-1.4,2.4-1.4c0.2,0.3-6.5,9.7-6.4,10c0.1,0.1,7.6-4.5,7.6-4.4c0.2,0.4-10.7,11.7-10.6,12
						c0,0.1,9.4-5.5,9.4-5.4c0.2,0.4-10.5,11.7-10.3,12c0.1,0.1,9.1-5.4,9.1-5.3"/>
					<path class="st5" d="M569.3,78.6c0,0.1,3.9-2.4,4-2.3c0.1,0.2-4.4,8-4.3,8.2c0,0.1,8-4.7,8.1-4.7c0.2,0.3-5.8,9.3-5.7,9.5
						c0,0.1,5.8-3.4,5.8-3.4c0.1,0.2-4.4,8.6-4.3,8.8c0,0.1,5.5-3.3,5.5-3.2c0.1,0.1,2.8,3.6,2.9,3.7c0,0.1,4.7-2.8,4.7-2.7
						c0.1,0.2-3.4,7.3-3.3,7.5c0,0.1,2.5-1.5,2.5-1.4c0.1,0.1-0.7,5.9-0.6,6.1c0,0.1,5.1-3,5.1-3c0.1,0.2-1.9,6.4-1.9,6.5
						c0,0.1,2.4-1.4,2.4-1.4c0.1,0.1-0.3,6-0.2,6.2c0,0.1,1-0.6,1-0.6c0,0.1,1.4,4.4,1.5,4.5c0,0.1,5.2-3.1,5.3-3.1
						c0.1,0.1,4.8,3.1,4.9,3.2c0.1,0.1,7.9-4.8,8-4.6"/>
					<path class="st5" d="M562.7,74.6c0,0,2.4-1.4,2.4-1.4c0.1,0.1-0.6,5.7-0.6,5.8c0.1,0.1,4.6-2.8,4.7-2.7c0.2,0.3-6.2,9.4-6,9.6
						c0,0.1,3.2-2,3.3-1.9c0.2,0.3-8.3,10.4-8.1,10.7c0,0.1,4.8-2.9,4.8-2.8c0.1,0.1-0.2,5.6-0.1,5.8c0,0.1,1-0.7,1.1-0.6"/>
					<path class="st5" d="M556.7,35.3c0.1,0.2,8.7-5.3,8.8-5.1c0.2,0.4-17.3,14.6-17.1,15.1c0.1,0.1,4.7-2.8,4.7-2.7
						c0.1,0.2-2.1,7-2,7.2c0,0.1,3.2-2,3.3-1.9c0.2,0.3-7.2,9.7-7.1,9.9c0,0.1,3.2-2,3.3-1.9c0.1,0.2-2,6.9-1.8,7.1
						c0,0.1,3.2-2,3.3-1.9c0.1,0.2-4.5,7.9-4.4,8.1c0.1,0.1,3.2-2,3.3-1.9c0.1,0.2-5.6,8.2-5.4,8.5c0,0.1,2.4-1.5,2.4-1.4
						c0.1,0.2-4.2,8.2-4,8.4c0.1,0.1,5-3,5.1-2.9c0.1,0.3-5.4,8.3-5.2,8.6c0,0.1,7.3-4.3,7.4-4.2c0.2,0.3-9.6,10.5-9.4,10.8
						c0,0.1,7.3-4.3,7.3-4.2c0.2,0.3-6.2,9.4-6.1,9.7c0,0.1,7-4.1,7-4.1c0.1,0.2-3,6.8-2.9,7c0,0.1,3.4-2,3.4-2
						c0.1,0.2-2.9,7.4-2.8,7.6c0.1,0.1,7-4.2,7.1-4.1"/>
				</g>
			</g>
		</g>
	</g>
</g>
</svg>
