<?xml version="1.0" encoding="utf-8"?>
<!-- Generator: Adobe Illustrator 22.0.1, SVG Export Plug-In . SVG Version: 6.00 Build 0)  -->
<svg version="1.1" id="Layer_1" xmlns="http://www.w3.org/2000/svg" xmlns:xlink="http://www.w3.org/1999/xlink" x="0px" y="0px"
	 viewBox="0 0 30.8 30" style="enable-background:new 0 0 30.8 30;" xml:space="preserve">
<style type="text/css">
	.st0{fill:#FFFFFF;}
</style>
<path class="st0" d="M26.3,3.7c-1.7-1.7-3.8-3-5.9-3.7v4.6c1,0.5,2,1.2,2.9,2.1c4.3,4.3,4.3,11.4,0,15.7c-4.3,4.3-11.4,4.3-15.7,0
	C3.2,18.1,3.2,11,7.5,6.7c0,0,0,0,0.1-0.1h0l2.6,2.6l0-8.1L2,1.1l2.6,2.6c0,0,0,0.1-0.1,0.1c-6,6-6,15.8,0,21.8c6,6,15.8,6,21.8,0
	C32.3,19.4,32.3,9.7,26.3,3.7z"/>
</svg>
