<?xml version="1.0" encoding="utf-8"?>
<!-- Generator: Adobe Illustrator 22.0.1, SVG Export Plug-In . SVG Version: 6.00 Build 0)  -->
<svg version="1.1" id="Layer_1" xmlns="http://www.w3.org/2000/svg" xmlns:xlink="http://www.w3.org/1999/xlink" x="0px" y="0px"
	 viewBox="0 0 150.9 67.8" style="enable-background:new 0 0 150.9 67.8;" xml:space="preserve">
<style type="text/css">
	.st0{fill:#2A593B;}
	.st1{fill:#49843D;}
	.st2{fill:#77A33E;}
</style>
<g>
	<g>
		<path class="st0" d="M150.9,54.1c0,4.7-0.6,9.3-1.8,13.7H0.1C0,67.1,0,66.3,0,65.6C0,60.2,1,55,2.8,50.3
			c6.1-16,21.7-27.3,39.8-27.3c3.2,0,6.2,0.3,9.2,1C60.5,11.1,74.4,2.2,90.4,0.4C92.5,0.1,94.6,0,96.8,0
			C126.6,0,150.9,24.2,150.9,54.1z"/>
		<path class="st1" d="M143.6,27.7c-7.9,17.3-26,29.5-47.1,29.5c-9.3,0-18.1-2.4-25.7-6.6c-7.5,4.2-16.3,6.6-25.7,6.6
			c-9.6,0-18.6-2.5-26.3-6.9c6.1-16,21.7-27.3,39.8-27.3c3.2,0,6.2,0.3,9.2,1c8.6-12.8,22.5-21.7,38.6-23.5
			C123.1,2.4,137,13.1,143.6,27.7z"/>
	</g>
	<path class="st2" d="M122.3,14.6c-2.4-2.7-5.4-5.1-8.6-6.8c-2.5-1.3-6-0.7-7.4,1.9c-1.3,2.5-0.7,6,1.9,7.4c0.7,0.4,1.3,0.7,2,1.1
		c0.3,0.2,0.6,0.4,0.8,0.6c0.1,0.1,0.4,0.3,0.5,0.4c1.1,0.9,2.1,1.9,3.1,3c1.9,2.1,5.7,2,7.6,0C124.3,20,124.3,16.9,122.3,14.6z"/>
	<path class="st2" d="M98.6,2.8c-0.9-0.9-2.5-1.6-3.8-1.6C93.4,1.3,92,1.8,91,2.8c-1,1.1-1.6,2.3-1.6,3.8v0.5c0,1.4,0.6,2.8,1.6,3.8
		c0.9,0.9,2.5,1.6,3.8,1.6c1.4-0.1,2.8-0.5,3.8-1.6c1-1.1,1.6-2.3,1.6-3.8V6.6C100.2,5.2,99.6,3.8,98.6,2.8z"/>
</g>
</svg>
