<?xml version="1.0" encoding="utf-8"?>
<!-- Generator: Adobe Illustrator 22.0.1, SVG Export Plug-In . SVG Version: 6.00 Build 0)  -->
<svg version="1.1" id="Layer_1" xmlns="http://www.w3.org/2000/svg" xmlns:xlink="http://www.w3.org/1999/xlink" x="0px" y="0px"
	 viewBox="0 0 222.4 322.5" style="enable-background:new 0 0 222.4 322.5;" xml:space="preserve">
<style type="text/css">
	.Graphic_x0020_Style{fill:url(#SVGID_1_);}
	.st0{fill:#446E3C;}
	.st1{fill:url(#SVGID_2_);}
	.st2{fill:#784937;}
	.st3{fill:#49843D;}
	.st4{fill:#77A33E;}
</style>
<linearGradient id="SVGID_1_" gradientUnits="userSpaceOnUse" x1="0" y1="0" x2="-0.3887" y2="0.9214">
	<stop  offset="9.212960e-02" style="stop-color:#49843D"/>
	<stop  offset="0.1955" style="stop-color:#447E3D"/>
	<stop  offset="0.7014" style="stop-color:#31633B"/>
	<stop  offset="1" style="stop-color:#2A593B"/>
</linearGradient>
<g>
	<ellipse class="st0" cx="99.1" cy="315.2" rx="48.5" ry="7.3"/>
	<linearGradient id="SVGID_2_" gradientUnits="userSpaceOnUse" x1="172.9887" y1="13.6824" x2="58.2521" y2="285.6873">
		<stop  offset="9.212960e-02" style="stop-color:#49843D"/>
		<stop  offset="0.1955" style="stop-color:#447E3D"/>
		<stop  offset="0.7014" style="stop-color:#31633B"/>
		<stop  offset="1" style="stop-color:#2A593B"/>
	</linearGradient>
	<path class="st1" d="M215,145.7c-1-26.8-10.8-51.2-26.1-69.5C181.3,32.8,147.2,0,106.2,0C59.6,0,21.8,42.4,21.8,94.7
		c0,7.7,0.8,15.2,2.4,22.4C9.3,132.5,0,154.6,0,179.1c0,46.6,33.7,84.5,75.3,84.5c9.6,0,18.8-2,27.2-5.7c5.1,0.9,10.4,1.4,15.7,1.4
		c13.1,0,25.6-2.9,36.9-8.2c1,0.1,2,0.1,3,0.1c35.5,0,64.2-32.3,64.2-72.1C222.4,167.1,219.7,155.7,215,145.7z"/>
	<path class="st2" d="M111.2,317.4c-4.9,0-8.9-4-8.9-8.9V156.6c0-4.9,4-8.9,8.9-8.9s8.9,4,8.9,8.9v151.9
		C120,313.4,116.1,317.4,111.2,317.4z"/>
	
		<rect x="97.8" y="223.5" transform="matrix(0.5048 -0.8632 0.8632 0.5048 -135.3784 220.4534)" class="st2" width="53.4" height="9.5"/>
	<path class="st3" d="M194.4,135.8c2.1-5.5,3.3-11.5,3.3-17.9c0-15.9-7.3-29.9-18.4-37.9c-2.3-36.8-29.6-65.9-63-65.9
		C83.8,14,57,41.6,53.6,77.1c-17.4,12.6-28.9,34.6-28.9,59.5c0,39.1,28.3,70.9,63.2,70.9c18,0,34.2-8.5,45.7-22
		c4.3,20.1,20.4,35,39.6,35c22.5,0,40.8-20.5,40.8-45.7C214,158.3,206.1,143.8,194.4,135.8z"/>
	<path class="st4" d="M153.1,50.8c-5.7-18.1-21-32.1-39.7-35.7c-6.8-1.3-9.7,9.1-2.9,10.4c15.1,2.9,27.6,13.5,32.2,28.2
		C144.8,60.2,155.2,57.4,153.1,50.8z"/>
	<path class="st4" d="M162.2,77.8c-0.4-1.8-0.7-3.6-1.1-5.4c-0.6-2.8-4-4.6-6.6-3.8c-2.9,0.9-4.4,3.7-3.8,6.6
		c0.4,1.8,0.7,3.6,1.1,5.4c0.6,2.8,4,4.6,6.6,3.8C161.4,83.5,162.8,80.8,162.2,77.8z"/>
	<path class="st3" d="M204.3,146.3c-5.9,1.2-11.4-2.3-11.4-2.3s4-5.5,9.9-6.7c5.9-1.2,11.4,2.3,11.4,2.3S210.1,145.1,204.3,146.3z"
		/>
	<path class="st3" d="M202.1,136c-3.3,5.6-9.4,7.5-9.4,7.5s-0.7-7,2.6-12.6c3.3-5.6,9.4-7.5,9.4-7.5S205.5,130.5,202.1,136z"/>
	
		<rect x="100.2" y="216.2" transform="matrix(0.7465 -0.6653 0.6653 0.7465 -124.3771 124.1004)" class="st2" width="0.9" height="18.2"/>
	<path class="st3" d="M49.8,63.8c4.5,4.4,5.5,11.4,5.5,11.4s-6.3-0.1-10.8-4.5C40,66.3,39,59.3,39,59.3S45.3,59.4,49.8,63.8z"/>
	<path class="st3" d="M46.8,72.6c5.9-0.6,11.1,3.5,11.1,3.5s-4.5,5-10.4,5.5c-5.9,0.6-11.1-3.5-11.1-3.5S40.9,73.2,46.8,72.6z"/>
</g>
</svg>
