<?xml version="1.0" encoding="utf-8"?>
<!-- Generator: Adobe Illustrator 22.0.1, SVG Export Plug-In . SVG Version: 6.00 Build 0)  -->
<svg version="1.1" id="Layer_1" xmlns="http://www.w3.org/2000/svg" xmlns:xlink="http://www.w3.org/1999/xlink" x="0px" y="0px"
	 viewBox="0 0 187.9 167.4" style="enable-background:new 0 0 187.9 167.4;" xml:space="preserve">
<style type="text/css">
	.Graphic_x0020_Style{fill:url(#SVGID_1_);}
	.st0{fill:#784937;}
	.st1{fill:url(#SVGID_2_);}
	.st2{fill:#49843D;}
	.st3{fill:url(#SVGID_3_);}
	.st4{fill:#2A593B;}
	.st5{fill:#77A33E;}
</style>
<linearGradient id="SVGID_1_" gradientUnits="userSpaceOnUse" x1="0" y1="0" x2="-0.3887" y2="0.9214">
	<stop  offset="9.212960e-02" style="stop-color:#49843D"/>
	<stop  offset="0.1955" style="stop-color:#447E3D"/>
	<stop  offset="0.7014" style="stop-color:#31633B"/>
	<stop  offset="1" style="stop-color:#2A593B"/>
</linearGradient>
<g>
	<polygon class="st0" points="99.3,167.4 70.4,115.5 76.2,112.3 99.5,154 124.4,112.2 130.1,115.6 	"/>
	<linearGradient id="SVGID_2_" gradientUnits="userSpaceOnUse" x1="149.3988" y1="25.8664" x2="102.8682" y2="136.1759">
		<stop  offset="9.212960e-02" style="stop-color:#49843D"/>
		<stop  offset="0.1955" style="stop-color:#447E3D"/>
		<stop  offset="0.7014" style="stop-color:#31633B"/>
		<stop  offset="1" style="stop-color:#2A593B"/>
	</linearGradient>
	<circle class="st1" cx="127.3" cy="78.4" r="54"/>
	<path class="st2" d="M76,68.8c0,26.2,21.2,40.1,47.4,40.1c26.2,0,47.4-13.9,47.4-40.1s-21.2-47.4-47.4-47.4
		C97.2,21.4,76,42.7,76,68.8z"/>
	<linearGradient id="SVGID_3_" gradientUnits="userSpaceOnUse" x1="102.7049" y1="1.8082" x2="45.6587" y2="137.0471">
		<stop  offset="9.212960e-02" style="stop-color:#49843D"/>
		<stop  offset="0.1955" style="stop-color:#447E3D"/>
		<stop  offset="0.7014" style="stop-color:#31633B"/>
		<stop  offset="1" style="stop-color:#2A593B"/>
	</linearGradient>
	<circle class="st3" cx="75.6" cy="66.2" r="66.2"/>
	<path class="st2" d="M31.6,59c0,32.6,26.4,49.9,59,49.9c32.6,0,59-17.3,59-49.9c0-32.6-26.4-59-59-59C58,0,31.6,26.4,31.6,59z"/>
	<path class="st2" d="M156.2,74c-6.3,9.6-4.8,21.7-4.8,21.7s11.6-3.5,17.9-13.2c6.3-9.6,4.8-21.7,4.8-21.7S162.5,64.4,156.2,74z"/>
	<path class="st2" d="M166,87c-11.3,2.3-18.8,11.8-18.8,11.8s10.7,5.8,21.9,3.6c11.3-2.3,18.8-11.8,18.8-11.8S177.2,84.7,166,87z"/>
	<path class="st4" d="M23.6,88.7c10.5,6.6,14.6,19.1,14.6,19.1s-13,1.8-23.6-4.8C4,96.4,0,83.9,0,83.9S13,82.1,23.6,88.7z"/>
	<path class="st4" d="M81.3,122.3c12.1-2.9,23.9,3,23.9,3s-7.8,10.6-19.9,13.5c-12.1,2.9-23.9-3-23.9-3S69.2,125.2,81.3,122.3z"/>
	<path class="st5" d="M123.5,26c-6.4-6.5-13.9-11.6-22.4-15.1c-7.8-3.2-17.9-6.1-26.2-3.1c-6.5,2.3-3.7,12.7,2.9,10.4
		c6.4-2.3,14.6,0.6,20.6,3.2c6.7,2.9,12.5,7.1,17.6,12.3C120.8,38.6,128.4,31,123.5,26z"/>
	<path class="st5" d="M144.3,38.1c-2.9-2.6-6.8-3.7-10.6-2.6c-2.7,0.8-4.7,3.8-3.8,6.6c0.9,2.7,3.7,4.6,6.6,3.8c0.1,0,0.2,0,0.2-0.1
		c0,0,0,0,0,0c0.1,0,0.1,0.1,0.2,0.1c0,0,0,0-0.1-0.1c2.1,1.7,5.4,1.9,7.3-0.2C146.1,43.6,146.5,40.1,144.3,38.1z"/>
</g>
</svg>
