<?xml version="1.0" encoding="utf-8"?>
<!-- Generator: Adobe Illustrator 22.0.1, SVG Export Plug-In . SVG Version: 6.00 Build 0)  -->
<svg version="1.1" id="Layer_1" xmlns="http://www.w3.org/2000/svg" xmlns:xlink="http://www.w3.org/1999/xlink" x="0px" y="0px"
	 viewBox="0 0 223.5 269" style="enable-background:new 0 0 223.5 269;" xml:space="preserve">
<style type="text/css">
	.Graphic_x0020_Style{fill:url(#SVGID_1_);}
	.st0{fill:#446E3C;}
	.st1{fill:url(#SVGID_2_);}
	.st2{fill:#784937;}
	.st3{fill:#49843D;}
	.st4{fill:#77A33E;}
</style>
<linearGradient id="SVGID_1_" gradientUnits="userSpaceOnUse" x1="0" y1="0" x2="-0.3887" y2="0.9214">
	<stop  offset="9.212960e-02" style="stop-color:#49843D"/>
	<stop  offset="0.1955" style="stop-color:#447E3D"/>
	<stop  offset="0.7014" style="stop-color:#31633B"/>
	<stop  offset="1" style="stop-color:#2A593B"/>
</linearGradient>
<g>
	<path class="st0" d="M156.1,262.2c0,3.8-23.6,6.8-52.7,6.8s-52.7-3.1-52.7-6.8c0-3.8,23.6-6.8,52.7-6.8S156.1,258.4,156.1,262.2z"
		/>
	<linearGradient id="SVGID_2_" gradientUnits="userSpaceOnUse" x1="158.5696" y1="-4.5933" x2="63.7717" y2="220.1432">
		<stop  offset="9.212960e-02" style="stop-color:#49843D"/>
		<stop  offset="0.1955" style="stop-color:#447E3D"/>
		<stop  offset="0.7014" style="stop-color:#31633B"/>
		<stop  offset="1" style="stop-color:#2A593B"/>
	</linearGradient>
	<path class="st1" d="M223.5,93.8c0-53.7-38.8-93.8-86.7-93.8c-27.2,0-51.4,10.6-67.3,32.5C30.7,35.4,0,71.7,0,115.9
		c0,42.7,28.6,78,65.5,83c11.3,6.9,24.2,10.8,37.9,10.8c19.3,0,37-7.8,50.8-20.7C193.7,180.1,223.5,140.8,223.5,93.8z"/>
	<path class="st2" d="M124.2,264.7C124.2,264.7,124.2,264.7,124.2,264.7c-4.9,0-8.9-4-8.9-8.9l0-151.9c0-4.9,4-8.9,8.9-8.9
		c0,0,0,0,0,0c4.9,0,8.9,4,8.9,8.9l0,151.9C133.1,260.8,129.1,264.7,124.2,264.7z"/>
	
		<rect x="100.7" y="143" transform="matrix(0.8674 -0.4976 0.4976 0.8674 -73.2343 75.7239)" class="st2" width="9.5" height="64.5"/>
	<path class="st3" d="M208.8,105.7c11.3-43.5-8.3-82.7-47-92.8c-28.1-7.3-59.7,0.8-77.9,24.6c-25.7,3.9-48.7,24.7-56.3,54.1
		c-9.9,38.1,7.8,68,41.7,76.8c17.4,4.5,45.2-0.7,53.8-10C154.7,173.5,197.8,148.1,208.8,105.7z"/>
	<path class="st4" d="M172.8,36.1C167.2,25.2,157,17.4,145,14.9c-6.8-1.4-9.6,8.9-2.9,10.4c9.4,2,16.9,7.6,21.3,16.2
		C166.7,47.6,176,42.2,172.8,36.1z"/>
	<path class="st4" d="M186.2,58.4c-1.9-2.1-5.7-2.1-7.6,0c-2.1,2.2-2,5.3,0,7.6c0.1,0.2,0.2,0.4,0.3,0.6c0,0,0,0,0,0
		c0,0,0,0.1,0,0.1c0.1,0.2,0.1,0.4,0.1,0.6c0,0,0,0,0,0c0,0.2,0,0.5-0.1,0.6c0-0.1,0-0.3,0.1-0.5c0,0,0,0,0,0
		c-0.4,2.7,0.7,5.9,3.8,6.5c2.6,0.6,6.1-0.8,6.6-3.8C190.2,65.8,189.2,61.8,186.2,58.4z"/>
	<path class="st3" d="M177,149.6c-5.8-1.4-11.4,2-11.4,2s3.9,5.6,9.7,7c5.8,1.4,11.4-2,11.4-2S182.8,150.9,177,149.6z"/>
	<path class="st3" d="M166.8,156.1c-3.2-5.6-9.2-7.8-9.2-7.8s-0.8,7,2.4,12.7c3.2,5.6,9.2,7.8,9.2,7.8S170,161.8,166.8,156.1z"/>
	<path class="st3" d="M32.3,94.2c4.5,4.4,5.5,11.4,5.5,11.4s-6.3-0.1-10.8-4.5c-4.5-4.4-5.5-11.4-5.5-11.4S27.8,89.9,32.3,94.2z"/>
	<path class="st3" d="M29.3,103.1c5.9-0.6,11.1,3.5,11.1,3.5s-4.5,5-10.4,5.5c-5.9,0.6-11.1-3.5-11.1-3.5S23.3,103.6,29.3,103.1z"/>
</g>
</svg>
